G75*
G70*
%OFA0B0*%
%FSLAX24Y24*%
%IPPOS*%
%LPD*%
%AMOC8*
5,1,8,0,0,1.08239X$1,22.5*
%
%ADD10C,0.0436*%
%ADD11OC8,0.0630*%
%ADD12C,0.0630*%
%ADD13C,0.0600*%
%ADD14C,0.0160*%
%ADD15C,0.0396*%
%ADD16C,0.0080*%
%ADD17C,0.0400*%
D10*
X000933Y008611D02*
X000933Y009048D01*
X001720Y009048D02*
X001720Y008611D01*
X002508Y008611D02*
X002508Y009048D01*
X003295Y009048D02*
X003295Y008611D01*
X004083Y008611D02*
X004083Y009048D01*
X004870Y009048D02*
X004870Y008611D01*
X005657Y008611D02*
X005657Y009048D01*
X006445Y009048D02*
X006445Y008611D01*
X007232Y008611D02*
X007232Y009048D01*
X008020Y009048D02*
X008020Y008611D01*
X008933Y008611D02*
X008933Y009048D01*
X009720Y009048D02*
X009720Y008611D01*
X010508Y008611D02*
X010508Y009048D01*
X011295Y009048D02*
X011295Y008611D01*
X012083Y008611D02*
X012083Y009048D01*
X012870Y009048D02*
X012870Y008611D01*
X013657Y008611D02*
X013657Y009048D01*
X014445Y009048D02*
X014445Y008611D01*
X015232Y008611D02*
X015232Y009048D01*
X016020Y009048D02*
X016020Y008611D01*
X016933Y008611D02*
X016933Y009048D01*
X017720Y009048D02*
X017720Y008611D01*
X018508Y008611D02*
X018508Y009048D01*
X019295Y009048D02*
X019295Y008611D01*
X020083Y008611D02*
X020083Y009048D01*
X020870Y009048D02*
X020870Y008611D01*
X021657Y008611D02*
X021657Y009048D01*
X022445Y009048D02*
X022445Y008611D01*
X023232Y008611D02*
X023232Y009048D01*
X024020Y009048D02*
X024020Y008611D01*
X024933Y008611D02*
X024933Y009048D01*
X025720Y009048D02*
X025720Y008611D01*
X026508Y008611D02*
X026508Y009048D01*
X027295Y009048D02*
X027295Y008611D01*
X028083Y008611D02*
X028083Y009048D01*
X028870Y009048D02*
X028870Y008611D01*
X029657Y008611D02*
X029657Y009048D01*
X030445Y009048D02*
X030445Y008611D01*
X031232Y008611D02*
X031232Y009048D01*
X032020Y009048D02*
X032020Y008611D01*
X032020Y013611D02*
X032020Y014048D01*
X031232Y014048D02*
X031232Y013611D01*
X030445Y013611D02*
X030445Y014048D01*
X029657Y014048D02*
X029657Y013611D01*
X028870Y013611D02*
X028870Y014048D01*
X028083Y014048D02*
X028083Y013611D01*
X027295Y013611D02*
X027295Y014048D01*
X026508Y014048D02*
X026508Y013611D01*
X025720Y013611D02*
X025720Y014048D01*
X024933Y014048D02*
X024933Y013611D01*
X024020Y013611D02*
X024020Y014048D01*
X023232Y014048D02*
X023232Y013611D01*
X022445Y013611D02*
X022445Y014048D01*
X021657Y014048D02*
X021657Y013611D01*
X020870Y013611D02*
X020870Y014048D01*
X020083Y014048D02*
X020083Y013611D01*
X019295Y013611D02*
X019295Y014048D01*
X018508Y014048D02*
X018508Y013611D01*
X017720Y013611D02*
X017720Y014048D01*
X016933Y014048D02*
X016933Y013611D01*
X016020Y013611D02*
X016020Y014048D01*
X015232Y014048D02*
X015232Y013611D01*
X014445Y013611D02*
X014445Y014048D01*
X013657Y014048D02*
X013657Y013611D01*
X012870Y013611D02*
X012870Y014048D01*
X012083Y014048D02*
X012083Y013611D01*
X011295Y013611D02*
X011295Y014048D01*
X010508Y014048D02*
X010508Y013611D01*
X009720Y013611D02*
X009720Y014048D01*
X008933Y014048D02*
X008933Y013611D01*
X008020Y013611D02*
X008020Y014048D01*
X007232Y014048D02*
X007232Y013611D01*
X006445Y013611D02*
X006445Y014048D01*
X005657Y014048D02*
X005657Y013611D01*
X004870Y013611D02*
X004870Y014048D01*
X004083Y014048D02*
X004083Y013611D01*
X003295Y013611D02*
X003295Y014048D01*
X002508Y014048D02*
X002508Y013611D01*
X001720Y013611D02*
X001720Y014048D01*
X000933Y014048D02*
X000933Y013611D01*
D11*
X007100Y005730D03*
D12*
X007100Y004730D03*
D13*
X004750Y004730D02*
X004150Y004730D01*
X004150Y003730D02*
X004750Y003730D01*
X004750Y002730D02*
X004150Y002730D01*
X004150Y001730D02*
X004750Y001730D01*
X007800Y002180D02*
X007800Y002780D01*
X008800Y002780D02*
X008800Y002180D01*
X009800Y002180D02*
X009800Y002780D01*
X004750Y005730D02*
X004150Y005730D01*
X028200Y005680D02*
X028800Y005680D01*
X030700Y005680D02*
X031300Y005680D01*
X031300Y004680D02*
X030700Y004680D01*
X028800Y004680D02*
X028200Y004680D01*
X028200Y003680D02*
X028800Y003680D01*
X030700Y003680D02*
X031300Y003680D01*
X031300Y002680D02*
X030700Y002680D01*
X028800Y002680D02*
X028200Y002680D01*
X028200Y001680D02*
X028800Y001680D01*
X030700Y001680D02*
X031300Y001680D01*
D14*
X000980Y000660D02*
X000980Y008233D01*
X001008Y008233D01*
X001147Y008291D01*
X001173Y008317D01*
X001214Y008277D01*
X003014Y006477D01*
X003102Y006440D01*
X006108Y006440D01*
X006096Y006435D01*
X005995Y006334D01*
X005940Y006202D01*
X005940Y006058D01*
X005995Y005926D01*
X006096Y005825D01*
X006228Y005770D01*
X006372Y005770D01*
X006504Y005825D01*
X006605Y005926D01*
X006605Y005730D01*
X007100Y005730D01*
X007595Y005730D01*
X007595Y005935D01*
X007590Y005940D01*
X007601Y005940D01*
X008138Y005403D01*
X008096Y005385D01*
X008031Y005320D01*
X007860Y005320D01*
X007860Y005352D01*
X007805Y005484D01*
X007704Y005585D01*
X007595Y005630D01*
X007595Y005730D01*
X007100Y005730D01*
X007100Y005730D01*
X007100Y005235D01*
X007140Y005235D01*
X007140Y005208D01*
X007141Y005205D01*
X007006Y005205D01*
X006831Y005133D01*
X006697Y004999D01*
X006625Y004824D01*
X006625Y004636D01*
X006697Y004461D01*
X006831Y004327D01*
X007006Y004255D01*
X007194Y004255D01*
X007369Y004327D01*
X007503Y004461D01*
X007575Y004636D01*
X007575Y004824D01*
X007546Y004895D01*
X007564Y004877D01*
X007652Y004840D01*
X008031Y004840D01*
X008096Y004775D01*
X008228Y004720D01*
X008372Y004720D01*
X008504Y004775D01*
X008605Y004876D01*
X008623Y004918D01*
X009471Y004070D01*
X006370Y004070D01*
X006322Y004090D01*
X006178Y004090D01*
X006046Y004035D01*
X005945Y003934D01*
X005927Y003892D01*
X005201Y004618D01*
X005210Y004638D01*
X005210Y004821D01*
X005140Y004991D01*
X005011Y005120D01*
X004841Y005190D01*
X004058Y005190D01*
X003889Y005120D01*
X003760Y004991D01*
X003690Y004821D01*
X003690Y004638D01*
X003760Y004469D01*
X003889Y004340D01*
X004058Y004270D01*
X004841Y004270D01*
X004862Y004279D01*
X006864Y002277D01*
X006952Y002240D01*
X007340Y002240D01*
X007340Y002088D01*
X007410Y001919D01*
X007539Y001790D01*
X007708Y001720D01*
X007891Y001720D01*
X008061Y001790D01*
X008190Y001919D01*
X008260Y002088D01*
X008260Y002871D01*
X008190Y003041D01*
X008061Y003170D01*
X007891Y003240D01*
X007708Y003240D01*
X007539Y003170D01*
X007410Y003041D01*
X007340Y002871D01*
X007340Y002720D01*
X007099Y002720D01*
X006699Y003120D01*
X006772Y003120D01*
X006904Y003175D01*
X006969Y003240D01*
X010251Y003240D01*
X011340Y002151D01*
X011340Y002058D01*
X011395Y001926D01*
X011496Y001825D01*
X011628Y001770D01*
X011772Y001770D01*
X011904Y001825D01*
X012005Y001926D01*
X012060Y002058D01*
X012060Y002202D01*
X012005Y002334D01*
X011904Y002435D01*
X011772Y002490D01*
X011679Y002490D01*
X010579Y003590D01*
X011506Y003590D01*
X011490Y003552D01*
X011490Y003408D01*
X011545Y003276D01*
X011646Y003175D01*
X011778Y003120D01*
X011871Y003120D01*
X013114Y001877D01*
X013202Y001840D01*
X013298Y001840D01*
X014251Y001840D01*
X014640Y001451D01*
X014640Y001358D01*
X014677Y001270D01*
X004119Y001270D01*
X004841Y001270D01*
X005011Y001340D01*
X005140Y001469D01*
X005210Y001638D01*
X005210Y001821D01*
X005140Y001991D01*
X005011Y002120D01*
X004841Y002190D01*
X004058Y002190D01*
X003889Y002120D01*
X003760Y001991D01*
X003690Y001821D01*
X003690Y001638D01*
X003760Y001469D01*
X003839Y001390D01*
X003778Y001390D01*
X003646Y001335D01*
X003545Y001234D01*
X003490Y001102D01*
X003490Y000958D01*
X003545Y000826D01*
X003646Y000725D01*
X003778Y000670D01*
X003922Y000670D01*
X004054Y000725D01*
X004119Y000790D01*
X015031Y000790D01*
X015096Y000725D01*
X015228Y000670D01*
X015372Y000670D01*
X015504Y000725D01*
X015605Y000826D01*
X015660Y000958D01*
X015660Y001102D01*
X015605Y001234D01*
X015504Y001335D01*
X015372Y001390D01*
X015360Y001390D01*
X015360Y001502D01*
X015305Y001634D01*
X015204Y001735D01*
X015072Y001790D01*
X014979Y001790D01*
X014729Y002040D01*
X016098Y002040D01*
X016186Y002077D01*
X016379Y002270D01*
X016472Y002270D01*
X016604Y002325D01*
X016705Y002426D01*
X016760Y002558D01*
X016760Y002702D01*
X016705Y002834D01*
X016604Y002935D01*
X016472Y002990D01*
X016328Y002990D01*
X016221Y002946D01*
X016205Y002984D01*
X016104Y003085D01*
X015972Y003140D01*
X015828Y003140D01*
X015710Y003091D01*
X015710Y003202D01*
X015655Y003334D01*
X015554Y003435D01*
X015446Y003480D01*
X015554Y003525D01*
X015655Y003626D01*
X015710Y003758D01*
X015710Y003902D01*
X015694Y003940D01*
X016101Y003940D01*
X016640Y003401D01*
X016640Y003308D01*
X016695Y003176D01*
X016796Y003075D01*
X016928Y003020D01*
X017072Y003020D01*
X017204Y003075D01*
X017305Y003176D01*
X017331Y003239D01*
X017396Y003175D01*
X017438Y003157D01*
X017271Y002990D01*
X017178Y002990D01*
X017046Y002935D01*
X016945Y002834D01*
X016890Y002702D01*
X016890Y002558D01*
X016945Y002426D01*
X017046Y002325D01*
X017178Y002270D01*
X017322Y002270D01*
X017454Y002325D01*
X017555Y002426D01*
X017610Y002558D01*
X017610Y002651D01*
X018540Y003581D01*
X018540Y003508D01*
X018558Y003465D01*
X018308Y003027D01*
X018297Y003016D01*
X018284Y002986D01*
X018268Y002958D01*
X018266Y002942D01*
X018260Y002928D01*
X018260Y002895D01*
X018256Y002863D01*
X018260Y002848D01*
X018260Y001732D01*
X018297Y001644D01*
X018364Y001577D01*
X018452Y001540D01*
X018606Y001540D01*
X018590Y001502D01*
X018590Y001358D01*
X018645Y001226D01*
X018746Y001125D01*
X018878Y001070D01*
X018971Y001070D01*
X019014Y001027D01*
X019102Y000990D01*
X019948Y000990D01*
X020036Y001027D01*
X020103Y001094D01*
X020149Y001140D01*
X024298Y001140D01*
X024386Y001177D01*
X024453Y001244D01*
X024599Y001390D01*
X024901Y001390D01*
X025114Y001177D01*
X025202Y001140D01*
X025451Y001140D01*
X025564Y001027D01*
X025652Y000990D01*
X026431Y000990D01*
X026496Y000925D01*
X026628Y000870D01*
X026772Y000870D01*
X026904Y000925D01*
X027005Y001026D01*
X027023Y001068D01*
X027431Y000660D01*
X000980Y000660D01*
X000980Y000814D02*
X003557Y000814D01*
X003490Y000973D02*
X000980Y000973D01*
X000980Y001131D02*
X003502Y001131D01*
X003600Y001290D02*
X000980Y001290D01*
X000980Y001448D02*
X003781Y001448D01*
X003703Y001607D02*
X000980Y001607D01*
X000980Y001765D02*
X003690Y001765D01*
X003732Y001924D02*
X000980Y001924D01*
X000980Y002082D02*
X003851Y002082D01*
X003889Y002340D02*
X004058Y002270D01*
X004841Y002270D01*
X005011Y002340D01*
X005140Y002469D01*
X005210Y002638D01*
X005210Y002821D01*
X005140Y002991D01*
X005011Y003120D01*
X004841Y003190D01*
X004058Y003190D01*
X003889Y003120D01*
X003760Y002991D01*
X003690Y002821D01*
X003690Y002638D01*
X003760Y002469D01*
X003889Y002340D01*
X003830Y002399D02*
X000980Y002399D01*
X000980Y002241D02*
X006951Y002241D01*
X006742Y002399D02*
X005070Y002399D01*
X005176Y002558D02*
X006583Y002558D01*
X006425Y002716D02*
X005210Y002716D01*
X005188Y002875D02*
X006266Y002875D01*
X006108Y003033D02*
X005098Y003033D01*
X005011Y003340D02*
X004841Y003270D01*
X004058Y003270D01*
X003889Y003340D01*
X003760Y003469D01*
X003690Y003638D01*
X003690Y003821D01*
X003760Y003991D01*
X003889Y004120D01*
X004058Y004190D01*
X004841Y004190D01*
X005011Y004120D01*
X005140Y003991D01*
X005210Y003821D01*
X005210Y003638D01*
X005140Y003469D01*
X005011Y003340D01*
X005021Y003350D02*
X005791Y003350D01*
X005949Y003192D02*
X000980Y003192D01*
X000980Y003350D02*
X003879Y003350D01*
X003744Y003509D02*
X000980Y003509D01*
X000980Y003667D02*
X003690Y003667D01*
X003692Y003826D02*
X000980Y003826D01*
X000980Y003984D02*
X003757Y003984D01*
X003944Y004143D02*
X000980Y004143D01*
X000980Y004301D02*
X003984Y004301D01*
X003770Y004460D02*
X000980Y004460D01*
X000980Y004618D02*
X003698Y004618D01*
X003690Y004777D02*
X000980Y004777D01*
X000980Y004935D02*
X003737Y004935D01*
X003863Y005094D02*
X000980Y005094D01*
X000980Y005252D02*
X004100Y005252D01*
X004112Y005250D02*
X004430Y005250D01*
X004430Y005710D01*
X004470Y005710D01*
X004470Y005750D01*
X004430Y005750D01*
X004430Y006210D01*
X004112Y006210D01*
X004038Y006198D01*
X003966Y006175D01*
X003898Y006141D01*
X003837Y006096D01*
X003784Y006043D01*
X003739Y005982D01*
X003705Y005914D01*
X003682Y005842D01*
X003670Y005768D01*
X003670Y005750D01*
X004430Y005750D01*
X004430Y005710D01*
X003670Y005710D01*
X003670Y005692D01*
X003682Y005618D01*
X003705Y005546D01*
X003739Y005478D01*
X003784Y005417D01*
X003837Y005364D01*
X003898Y005319D01*
X003966Y005285D01*
X004038Y005262D01*
X004112Y005250D01*
X004430Y005252D02*
X004470Y005252D01*
X004470Y005250D02*
X004788Y005250D01*
X004862Y005262D01*
X004934Y005285D01*
X005002Y005319D01*
X005063Y005364D01*
X005116Y005417D01*
X005161Y005478D01*
X005195Y005546D01*
X005218Y005618D01*
X005230Y005692D01*
X005230Y005710D01*
X004470Y005710D01*
X004470Y005250D01*
X004470Y005411D02*
X004430Y005411D01*
X004430Y005569D02*
X004470Y005569D01*
X004470Y005728D02*
X006605Y005728D01*
X006605Y005730D02*
X006605Y005525D01*
X006895Y005235D01*
X007100Y005235D01*
X007100Y005730D01*
X007100Y005730D01*
X007100Y005730D01*
X006605Y005730D01*
X006605Y005886D02*
X006565Y005886D01*
X007100Y005728D02*
X007100Y005728D01*
X007100Y005569D02*
X007100Y005569D01*
X007100Y005411D02*
X007100Y005411D01*
X007100Y005252D02*
X007100Y005252D01*
X006878Y005252D02*
X004800Y005252D01*
X005037Y005094D02*
X006792Y005094D01*
X006671Y004935D02*
X005163Y004935D01*
X005210Y004777D02*
X006625Y004777D01*
X006632Y004618D02*
X005202Y004618D01*
X005360Y004460D02*
X006699Y004460D01*
X006894Y004301D02*
X005518Y004301D01*
X005677Y004143D02*
X009398Y004143D01*
X009240Y004301D02*
X007306Y004301D01*
X007501Y004460D02*
X009081Y004460D01*
X008923Y004618D02*
X007568Y004618D01*
X007575Y004777D02*
X008094Y004777D01*
X008506Y004777D02*
X008764Y004777D01*
X008130Y005411D02*
X007836Y005411D01*
X007720Y005569D02*
X007972Y005569D01*
X007813Y005728D02*
X007595Y005728D01*
X007595Y005886D02*
X007655Y005886D01*
X006719Y005411D02*
X005109Y005411D01*
X005202Y005569D02*
X006605Y005569D01*
X006035Y005886D02*
X005204Y005886D01*
X005195Y005914D02*
X005161Y005982D01*
X005116Y006043D01*
X005063Y006096D01*
X005002Y006141D01*
X004934Y006175D01*
X004862Y006198D01*
X004788Y006210D01*
X004470Y006210D01*
X004470Y005750D01*
X005230Y005750D01*
X005230Y005768D01*
X005218Y005842D01*
X005195Y005914D01*
X005114Y006045D02*
X005946Y006045D01*
X005941Y006203D02*
X004832Y006203D01*
X004470Y006203D02*
X004430Y006203D01*
X004430Y006045D02*
X004470Y006045D01*
X004470Y005886D02*
X004430Y005886D01*
X004430Y005728D02*
X000980Y005728D01*
X000980Y005886D02*
X003696Y005886D01*
X003786Y006045D02*
X000980Y006045D01*
X000980Y006203D02*
X004068Y006203D01*
X002971Y006520D02*
X000980Y006520D01*
X000980Y006362D02*
X006022Y006362D01*
X003791Y005411D02*
X000980Y005411D01*
X000980Y005569D02*
X003698Y005569D01*
X002812Y006679D02*
X000980Y006679D01*
X000980Y006837D02*
X002654Y006837D01*
X002495Y006996D02*
X000980Y006996D01*
X000980Y007154D02*
X002337Y007154D01*
X002178Y007313D02*
X000980Y007313D01*
X000980Y007471D02*
X002020Y007471D01*
X001861Y007630D02*
X000980Y007630D01*
X000980Y007788D02*
X001703Y007788D01*
X001544Y007947D02*
X000980Y007947D01*
X000980Y008105D02*
X001386Y008105D01*
X001227Y008264D02*
X001081Y008264D01*
X009449Y006170D02*
X009572Y006170D01*
X009704Y006225D01*
X009769Y006290D01*
X010931Y006290D01*
X010996Y006225D01*
X011128Y006170D01*
X011272Y006170D01*
X011404Y006225D01*
X011505Y006326D01*
X011560Y006458D01*
X011560Y006602D01*
X011544Y006640D01*
X011806Y006640D01*
X011790Y006602D01*
X011790Y006458D01*
X011845Y006326D01*
X011946Y006225D01*
X012078Y006170D01*
X012222Y006170D01*
X012354Y006225D01*
X012419Y006290D01*
X012478Y006290D01*
X012497Y006244D01*
X012897Y005844D01*
X012964Y005777D01*
X013052Y005740D01*
X013451Y005740D01*
X014447Y004744D01*
X014514Y004677D01*
X014602Y004640D01*
X015706Y004640D01*
X015690Y004602D01*
X015690Y004458D01*
X015706Y004420D01*
X015152Y004420D01*
X015064Y004383D01*
X014997Y004316D01*
X014951Y004270D01*
X013999Y004270D01*
X014055Y004326D01*
X014110Y004458D01*
X014110Y004602D01*
X014055Y004734D01*
X013954Y004835D01*
X013822Y004890D01*
X013729Y004890D01*
X012853Y005766D01*
X012786Y005833D01*
X012698Y005870D01*
X012302Y005870D01*
X012214Y005833D01*
X012147Y005766D01*
X011897Y005516D01*
X011860Y005428D01*
X011860Y005220D01*
X010399Y005220D01*
X009449Y006170D01*
X009575Y006045D02*
X012696Y006045D01*
X012538Y006203D02*
X012301Y006203D01*
X011999Y006203D02*
X011351Y006203D01*
X011520Y006362D02*
X011830Y006362D01*
X011790Y006520D02*
X011560Y006520D01*
X011049Y006203D02*
X009651Y006203D01*
X009733Y005886D02*
X012855Y005886D01*
X012892Y005728D02*
X013463Y005728D01*
X013622Y005569D02*
X013050Y005569D01*
X013209Y005411D02*
X013780Y005411D01*
X013939Y005252D02*
X013367Y005252D01*
X013526Y005094D02*
X014097Y005094D01*
X014256Y004935D02*
X013684Y004935D01*
X014013Y004777D02*
X014414Y004777D01*
X014103Y004618D02*
X015697Y004618D01*
X015690Y004460D02*
X014110Y004460D01*
X014030Y004301D02*
X014982Y004301D01*
X015710Y003826D02*
X016215Y003826D01*
X016374Y003667D02*
X015672Y003667D01*
X015515Y003509D02*
X016532Y003509D01*
X016640Y003350D02*
X015639Y003350D01*
X015710Y003192D02*
X016688Y003192D01*
X016897Y003033D02*
X016156Y003033D01*
X016665Y002875D02*
X016985Y002875D01*
X016896Y002716D02*
X016754Y002716D01*
X016760Y002558D02*
X016890Y002558D01*
X016972Y002399D02*
X016678Y002399D01*
X016350Y002241D02*
X018260Y002241D01*
X018260Y002399D02*
X017528Y002399D01*
X017610Y002558D02*
X018260Y002558D01*
X018260Y002716D02*
X017675Y002716D01*
X017834Y002875D02*
X018257Y002875D01*
X018311Y003033D02*
X017992Y003033D01*
X018151Y003192D02*
X018402Y003192D01*
X018492Y003350D02*
X018309Y003350D01*
X018468Y003509D02*
X018540Y003509D01*
X017379Y003192D02*
X017312Y003192D01*
X017314Y003033D02*
X017103Y003033D01*
X016191Y002082D02*
X018260Y002082D01*
X018260Y001924D02*
X014846Y001924D01*
X015132Y001765D02*
X018260Y001765D01*
X018334Y001607D02*
X015317Y001607D01*
X015360Y001448D02*
X018590Y001448D01*
X018619Y001290D02*
X015550Y001290D01*
X015648Y001131D02*
X018740Y001131D01*
X020140Y001131D02*
X025460Y001131D01*
X025001Y001290D02*
X024499Y001290D01*
X024453Y001244D02*
X024453Y001244D01*
X026448Y000973D02*
X015660Y000973D01*
X015593Y000814D02*
X027277Y000814D01*
X027118Y000973D02*
X026952Y000973D01*
X027621Y001448D02*
X027798Y001448D01*
X027810Y001419D02*
X027939Y001290D01*
X028108Y001220D01*
X028891Y001220D01*
X029061Y001290D01*
X029190Y001419D01*
X029260Y001588D01*
X029260Y001771D01*
X029190Y001941D01*
X029061Y002070D01*
X028891Y002140D01*
X028108Y002140D01*
X027939Y002070D01*
X027810Y001941D01*
X027740Y001771D01*
X027740Y001588D01*
X027810Y001419D01*
X027780Y001290D02*
X027941Y001290D01*
X027849Y001220D02*
X027053Y002016D01*
X026986Y002083D01*
X026898Y002120D01*
X026894Y002120D01*
X026910Y002158D01*
X026910Y002251D01*
X027947Y003287D01*
X028108Y003220D01*
X028891Y003220D01*
X029061Y003290D01*
X029190Y003419D01*
X029260Y003588D01*
X029260Y003771D01*
X029190Y003941D01*
X029061Y004070D01*
X028891Y004140D01*
X028108Y004140D01*
X027939Y004070D01*
X027810Y003941D01*
X027740Y003771D01*
X027740Y003759D01*
X026571Y002590D01*
X026478Y002590D01*
X026346Y002535D01*
X026340Y002529D01*
X026340Y004078D01*
X026303Y004166D01*
X026236Y004233D01*
X026148Y004270D01*
X024469Y004270D01*
X024404Y004335D01*
X024272Y004390D01*
X024179Y004390D01*
X022786Y005783D01*
X022698Y005820D01*
X021544Y005820D01*
X021560Y005858D01*
X021560Y006002D01*
X021544Y006040D01*
X022801Y006040D01*
X023297Y005544D01*
X023364Y005477D01*
X023452Y005440D01*
X027802Y005440D01*
X027810Y005419D01*
X027939Y005290D01*
X028108Y005220D01*
X028891Y005220D01*
X029061Y005290D01*
X029190Y005419D01*
X029260Y005588D01*
X029260Y005771D01*
X029190Y005941D01*
X029061Y006070D01*
X028891Y006140D01*
X028108Y006140D01*
X027939Y006070D01*
X027810Y005941D01*
X027802Y005920D01*
X023599Y005920D01*
X023479Y006040D01*
X027848Y006040D01*
X027936Y006077D01*
X027999Y006140D01*
X029001Y006140D01*
X029760Y005381D01*
X029760Y002782D01*
X029797Y002694D01*
X029864Y002627D01*
X029952Y002590D01*
X030240Y002590D01*
X030240Y002588D01*
X030310Y002419D01*
X030439Y002290D01*
X030608Y002220D01*
X031391Y002220D01*
X031561Y002290D01*
X031690Y002419D01*
X031760Y002588D01*
X031760Y002771D01*
X031690Y002941D01*
X031561Y003070D01*
X031391Y003140D01*
X030608Y003140D01*
X030440Y003070D01*
X030240Y003070D01*
X030240Y005528D01*
X030203Y005616D01*
X030136Y005683D01*
X029236Y006583D01*
X029148Y006620D01*
X028194Y006620D01*
X028210Y006658D01*
X028210Y006790D01*
X032040Y006790D01*
X032040Y003279D01*
X031751Y003568D01*
X031760Y003588D01*
X031760Y003771D01*
X031690Y003941D01*
X031561Y004070D01*
X031391Y004140D01*
X030608Y004140D01*
X030439Y004070D01*
X030310Y003941D01*
X030240Y003771D01*
X030240Y003588D01*
X030310Y003419D01*
X030439Y003290D01*
X030608Y003220D01*
X031391Y003220D01*
X031412Y003229D01*
X031810Y002831D01*
X031810Y001170D01*
X031652Y001170D01*
X031564Y001133D01*
X031301Y000870D01*
X030529Y000870D01*
X030879Y001220D01*
X031391Y001220D01*
X031561Y001290D01*
X031690Y001419D01*
X031760Y001588D01*
X031760Y001771D01*
X031690Y001941D01*
X031561Y002070D01*
X031391Y002140D01*
X030608Y002140D01*
X030439Y002070D01*
X030310Y001941D01*
X030240Y001771D01*
X030240Y001588D01*
X030310Y001419D01*
X030355Y001374D01*
X030201Y001220D01*
X027849Y001220D01*
X027740Y001607D02*
X027463Y001607D01*
X027304Y001765D02*
X027740Y001765D01*
X027803Y001924D02*
X027146Y001924D01*
X026987Y002082D02*
X027968Y002082D01*
X028059Y002241D02*
X026910Y002241D01*
X027058Y002399D02*
X027830Y002399D01*
X027810Y002419D02*
X027939Y002290D01*
X028108Y002220D01*
X028891Y002220D01*
X029061Y002290D01*
X029190Y002419D01*
X029260Y002588D01*
X029260Y002771D01*
X029190Y002941D01*
X029061Y003070D01*
X028891Y003140D01*
X028108Y003140D01*
X027939Y003070D01*
X027810Y002941D01*
X027740Y002771D01*
X027740Y002588D01*
X027810Y002419D01*
X027753Y002558D02*
X027217Y002558D01*
X027375Y002716D02*
X027740Y002716D01*
X027783Y002875D02*
X027534Y002875D01*
X027692Y003033D02*
X027902Y003033D01*
X027851Y003192D02*
X029760Y003192D01*
X029760Y003350D02*
X029121Y003350D01*
X029227Y003509D02*
X029760Y003509D01*
X029760Y003667D02*
X029260Y003667D01*
X029238Y003826D02*
X029760Y003826D01*
X029760Y003984D02*
X029147Y003984D01*
X029061Y004290D02*
X029190Y004419D01*
X029260Y004588D01*
X029260Y004771D01*
X029190Y004941D01*
X029061Y005070D01*
X028891Y005140D01*
X028108Y005140D01*
X027939Y005070D01*
X027810Y004941D01*
X027740Y004771D01*
X027740Y004588D01*
X027810Y004419D01*
X027939Y004290D01*
X028108Y004220D01*
X028891Y004220D01*
X029061Y004290D01*
X029072Y004301D02*
X029760Y004301D01*
X029760Y004460D02*
X029207Y004460D01*
X029260Y004618D02*
X029760Y004618D01*
X029760Y004777D02*
X029258Y004777D01*
X029192Y004935D02*
X029760Y004935D01*
X029760Y005094D02*
X029004Y005094D01*
X028969Y005252D02*
X029760Y005252D01*
X029730Y005411D02*
X029181Y005411D01*
X029252Y005569D02*
X029572Y005569D01*
X029413Y005728D02*
X029260Y005728D01*
X029255Y005886D02*
X029213Y005886D01*
X029096Y006045D02*
X029086Y006045D01*
X029616Y006203D02*
X032040Y006203D01*
X032040Y006045D02*
X031614Y006045D01*
X031613Y006046D02*
X031552Y006091D01*
X031484Y006125D01*
X031412Y006148D01*
X031338Y006160D01*
X031020Y006160D01*
X031020Y005700D01*
X030980Y005700D01*
X030980Y006160D01*
X030662Y006160D01*
X030588Y006148D01*
X030516Y006125D01*
X030448Y006091D01*
X030387Y006046D01*
X030334Y005993D01*
X030289Y005932D01*
X030255Y005864D01*
X030232Y005792D01*
X030220Y005718D01*
X030220Y005700D01*
X030980Y005700D01*
X030980Y005660D01*
X031020Y005660D01*
X031020Y005700D01*
X031780Y005700D01*
X031780Y005718D01*
X031768Y005792D01*
X031745Y005864D01*
X031711Y005932D01*
X031666Y005993D01*
X031613Y006046D01*
X031734Y005886D02*
X032040Y005886D01*
X032040Y005728D02*
X031778Y005728D01*
X031780Y005660D02*
X031020Y005660D01*
X031020Y005200D01*
X031338Y005200D01*
X031412Y005212D01*
X031484Y005235D01*
X031552Y005269D01*
X031613Y005314D01*
X031666Y005367D01*
X031711Y005428D01*
X031745Y005496D01*
X031768Y005568D01*
X031780Y005642D01*
X031780Y005660D01*
X031768Y005569D02*
X032040Y005569D01*
X032040Y005411D02*
X031698Y005411D01*
X031517Y005252D02*
X032040Y005252D01*
X032040Y005094D02*
X031504Y005094D01*
X031561Y005070D02*
X031391Y005140D01*
X030608Y005140D01*
X030439Y005070D01*
X030310Y004941D01*
X030240Y004771D01*
X030240Y004588D01*
X030310Y004419D01*
X030439Y004290D01*
X030608Y004220D01*
X031391Y004220D01*
X031561Y004290D01*
X031690Y004419D01*
X031760Y004588D01*
X031760Y004771D01*
X031690Y004941D01*
X031561Y005070D01*
X031692Y004935D02*
X032040Y004935D01*
X032040Y004777D02*
X031758Y004777D01*
X031760Y004618D02*
X032040Y004618D01*
X032040Y004460D02*
X031707Y004460D01*
X031572Y004301D02*
X032040Y004301D01*
X032040Y004143D02*
X030240Y004143D01*
X030240Y003984D02*
X030353Y003984D01*
X030262Y003826D02*
X030240Y003826D01*
X030240Y003667D02*
X030240Y003667D01*
X030240Y003509D02*
X030273Y003509D01*
X030240Y003350D02*
X030379Y003350D01*
X030240Y003192D02*
X031449Y003192D01*
X031598Y003033D02*
X031608Y003033D01*
X031717Y002875D02*
X031766Y002875D01*
X031760Y002716D02*
X031810Y002716D01*
X031810Y002558D02*
X031747Y002558D01*
X031810Y002399D02*
X031670Y002399D01*
X031810Y002241D02*
X031441Y002241D01*
X031532Y002082D02*
X031810Y002082D01*
X031810Y001924D02*
X031697Y001924D01*
X031760Y001765D02*
X031810Y001765D01*
X031810Y001607D02*
X031760Y001607D01*
X031810Y001448D02*
X031702Y001448D01*
X031810Y001290D02*
X031559Y001290D01*
X031562Y001131D02*
X030790Y001131D01*
X030632Y000973D02*
X031403Y000973D01*
X030270Y001290D02*
X029059Y001290D01*
X029202Y001448D02*
X030298Y001448D01*
X030240Y001607D02*
X029260Y001607D01*
X029260Y001765D02*
X030240Y001765D01*
X030303Y001924D02*
X029197Y001924D01*
X029032Y002082D02*
X030468Y002082D01*
X030559Y002241D02*
X028941Y002241D01*
X029170Y002399D02*
X030330Y002399D01*
X030253Y002558D02*
X029247Y002558D01*
X029260Y002716D02*
X029787Y002716D01*
X029760Y002875D02*
X029217Y002875D01*
X029098Y003033D02*
X029760Y003033D01*
X031760Y003667D02*
X032040Y003667D01*
X032040Y003509D02*
X031811Y003509D01*
X031969Y003350D02*
X032040Y003350D01*
X032040Y003826D02*
X031738Y003826D01*
X031647Y003984D02*
X032040Y003984D01*
X030428Y004301D02*
X030240Y004301D01*
X030240Y004460D02*
X030293Y004460D01*
X030240Y004618D02*
X030240Y004618D01*
X030240Y004777D02*
X030242Y004777D01*
X030240Y004935D02*
X030308Y004935D01*
X030240Y005094D02*
X030496Y005094D01*
X030516Y005235D02*
X030588Y005212D01*
X030662Y005200D01*
X030980Y005200D01*
X030980Y005660D01*
X030220Y005660D01*
X030220Y005642D01*
X030232Y005568D01*
X030255Y005496D01*
X030289Y005428D01*
X030334Y005367D01*
X030387Y005314D01*
X030448Y005269D01*
X030516Y005235D01*
X030483Y005252D02*
X030240Y005252D01*
X030240Y005411D02*
X030302Y005411D01*
X030232Y005569D02*
X030223Y005569D01*
X030222Y005728D02*
X030092Y005728D01*
X029933Y005886D02*
X030266Y005886D01*
X030386Y006045D02*
X029775Y006045D01*
X029458Y006362D02*
X032040Y006362D01*
X032040Y006520D02*
X029299Y006520D01*
X028210Y006679D02*
X032040Y006679D01*
X031020Y006045D02*
X030980Y006045D01*
X030980Y005886D02*
X031020Y005886D01*
X031020Y005728D02*
X030980Y005728D01*
X030980Y005569D02*
X031020Y005569D01*
X031020Y005411D02*
X030980Y005411D01*
X030980Y005252D02*
X031020Y005252D01*
X029760Y004143D02*
X026313Y004143D01*
X026340Y003984D02*
X027853Y003984D01*
X027762Y003826D02*
X026340Y003826D01*
X026340Y003667D02*
X027648Y003667D01*
X027489Y003509D02*
X026340Y003509D01*
X026340Y003350D02*
X027331Y003350D01*
X027172Y003192D02*
X026340Y003192D01*
X026340Y003033D02*
X027014Y003033D01*
X026855Y002875D02*
X026340Y002875D01*
X026340Y002716D02*
X026697Y002716D01*
X026400Y002558D02*
X026340Y002558D01*
X027928Y004301D02*
X024438Y004301D01*
X024110Y004460D02*
X027793Y004460D01*
X027740Y004618D02*
X023951Y004618D01*
X023793Y004777D02*
X027742Y004777D01*
X027808Y004935D02*
X023634Y004935D01*
X023476Y005094D02*
X027996Y005094D01*
X028031Y005252D02*
X023317Y005252D01*
X023159Y005411D02*
X027819Y005411D01*
X027859Y006045D02*
X027914Y006045D01*
X023272Y005569D02*
X023000Y005569D01*
X023113Y005728D02*
X022842Y005728D01*
X022955Y005886D02*
X021560Y005886D01*
X013067Y001924D02*
X012003Y001924D01*
X012060Y002082D02*
X012909Y002082D01*
X012750Y002241D02*
X012044Y002241D01*
X011940Y002399D02*
X012592Y002399D01*
X012433Y002558D02*
X011612Y002558D01*
X011453Y002716D02*
X012275Y002716D01*
X012116Y002875D02*
X011295Y002875D01*
X011136Y003033D02*
X011958Y003033D01*
X011629Y003192D02*
X010978Y003192D01*
X010819Y003350D02*
X011514Y003350D01*
X011490Y003509D02*
X010661Y003509D01*
X010299Y003192D02*
X010009Y003192D01*
X010061Y003170D02*
X009891Y003240D01*
X009708Y003240D01*
X009539Y003170D01*
X009410Y003041D01*
X009340Y002871D01*
X009340Y002088D01*
X009410Y001919D01*
X009539Y001790D01*
X009708Y001720D01*
X009891Y001720D01*
X010061Y001790D01*
X010190Y001919D01*
X010260Y002088D01*
X010260Y002871D01*
X010190Y003041D01*
X010061Y003170D01*
X010193Y003033D02*
X010458Y003033D01*
X010616Y002875D02*
X010259Y002875D01*
X010260Y002716D02*
X010775Y002716D01*
X010933Y002558D02*
X010260Y002558D01*
X010260Y002399D02*
X011092Y002399D01*
X011250Y002241D02*
X010260Y002241D01*
X010257Y002082D02*
X011340Y002082D01*
X011397Y001924D02*
X010192Y001924D01*
X010000Y001765D02*
X014326Y001765D01*
X014484Y001607D02*
X005197Y001607D01*
X005210Y001765D02*
X007600Y001765D01*
X007408Y001924D02*
X005168Y001924D01*
X005049Y002082D02*
X007343Y002082D01*
X008000Y001765D02*
X008600Y001765D01*
X008539Y001790D02*
X008708Y001720D01*
X008891Y001720D01*
X009061Y001790D01*
X009190Y001919D01*
X009260Y002088D01*
X009260Y002871D01*
X009190Y003041D01*
X009061Y003170D01*
X008891Y003240D01*
X008708Y003240D01*
X008539Y003170D01*
X008410Y003041D01*
X008340Y002871D01*
X008340Y002088D01*
X008410Y001919D01*
X008539Y001790D01*
X008408Y001924D02*
X008192Y001924D01*
X008257Y002082D02*
X008343Y002082D01*
X008340Y002241D02*
X008260Y002241D01*
X008260Y002399D02*
X008340Y002399D01*
X008340Y002558D02*
X008260Y002558D01*
X008260Y002716D02*
X008340Y002716D01*
X008341Y002875D02*
X008259Y002875D01*
X008193Y003033D02*
X008407Y003033D01*
X008591Y003192D02*
X008009Y003192D01*
X007591Y003192D02*
X006921Y003192D01*
X006786Y003033D02*
X007407Y003033D01*
X007341Y002875D02*
X006945Y002875D01*
X005632Y003509D02*
X005156Y003509D01*
X005210Y003667D02*
X005474Y003667D01*
X005315Y003826D02*
X005208Y003826D01*
X005157Y003984D02*
X005143Y003984D01*
X004998Y004143D02*
X004956Y004143D01*
X005835Y003984D02*
X005995Y003984D01*
X003802Y003033D02*
X000980Y003033D01*
X000980Y002875D02*
X003712Y002875D01*
X003690Y002716D02*
X000980Y002716D01*
X000980Y002558D02*
X003724Y002558D01*
X005119Y001448D02*
X014640Y001448D01*
X014669Y001290D02*
X004889Y001290D01*
X004119Y001270D02*
X004119Y001270D01*
X009000Y001765D02*
X009600Y001765D01*
X009408Y001924D02*
X009192Y001924D01*
X009257Y002082D02*
X009343Y002082D01*
X009340Y002241D02*
X009260Y002241D01*
X009260Y002399D02*
X009340Y002399D01*
X009340Y002558D02*
X009260Y002558D01*
X009260Y002716D02*
X009340Y002716D01*
X009341Y002875D02*
X009259Y002875D01*
X009193Y003033D02*
X009407Y003033D01*
X009591Y003192D02*
X009009Y003192D01*
X010367Y005252D02*
X011860Y005252D01*
X011860Y005411D02*
X010209Y005411D01*
X010050Y005569D02*
X011950Y005569D01*
X012108Y005728D02*
X009892Y005728D01*
D15*
X011450Y005530D03*
X008600Y004380D03*
X014750Y004480D03*
X020100Y003030D03*
X021250Y003680D03*
X024750Y001130D03*
D16*
X024250Y001380D02*
X020050Y001380D01*
X019900Y001230D01*
X019150Y001230D01*
X018950Y001430D01*
X018500Y001780D02*
X020000Y001780D01*
X020200Y001580D01*
X024050Y001580D01*
X024350Y001880D01*
X025100Y001880D01*
X025400Y001580D01*
X025900Y001580D01*
X026300Y001680D02*
X025900Y002080D01*
X025900Y003680D01*
X023550Y003680D01*
X023200Y004030D01*
X022750Y004480D01*
X018950Y004480D01*
X018200Y005230D01*
X018200Y005180D01*
X017700Y004680D01*
X016200Y004680D01*
X016050Y004530D01*
X016000Y004880D02*
X014650Y004880D01*
X013550Y005980D01*
X013100Y005980D01*
X012700Y006380D01*
X012700Y006530D01*
X012150Y006530D01*
X012700Y006880D02*
X013250Y006330D01*
X014025Y006055D02*
X015050Y007080D01*
X020650Y007080D01*
X020800Y007230D01*
X020950Y006880D02*
X021150Y007080D01*
X028000Y007080D01*
X028050Y007030D01*
X032050Y007030D01*
X032050Y008780D01*
X032020Y008830D01*
X031232Y008830D02*
X031200Y008780D01*
X031200Y007280D01*
X021250Y007280D01*
X020950Y007580D01*
X020400Y007580D01*
X020250Y007430D01*
X016000Y007430D01*
X015550Y007780D02*
X015400Y007630D01*
X011300Y007630D01*
X011150Y007280D02*
X012850Y007280D01*
X012850Y007230D01*
X014025Y006055D01*
X014850Y005230D01*
X016000Y004880D02*
X016350Y005230D01*
X017300Y005030D02*
X018700Y006430D01*
X018650Y006530D01*
X019600Y005580D01*
X022650Y005580D01*
X024200Y004030D01*
X026100Y004030D01*
X026100Y002180D01*
X026400Y001880D01*
X026850Y001880D01*
X027750Y000980D01*
X030300Y000980D01*
X031000Y001680D01*
X031700Y000930D02*
X031400Y000630D01*
X027800Y000630D01*
X026750Y001680D01*
X026300Y001680D01*
X026700Y001230D02*
X025700Y001230D01*
X025550Y001380D01*
X025250Y001380D01*
X025000Y001630D01*
X024500Y001630D01*
X024250Y001380D01*
X023800Y001930D02*
X020350Y001930D01*
X020250Y002030D01*
X019100Y002380D02*
X025200Y002380D01*
X025550Y002030D01*
X026550Y002230D02*
X028000Y003680D01*
X028500Y003680D01*
X030000Y002830D02*
X030850Y002830D01*
X031000Y002680D01*
X030000Y002830D02*
X030000Y005480D01*
X029100Y006380D01*
X027900Y006380D01*
X027800Y006280D01*
X023200Y006280D01*
X022900Y006580D01*
X019200Y006580D01*
X019150Y006530D01*
X019550Y006230D02*
X019600Y006280D01*
X022900Y006280D01*
X023500Y005680D01*
X028500Y005680D01*
X027750Y006630D02*
X023350Y006630D01*
X023100Y007630D02*
X030450Y007630D01*
X030450Y008780D01*
X030445Y008830D01*
X028900Y008780D02*
X028870Y008830D01*
X028900Y008780D02*
X028900Y007980D01*
X026650Y007980D01*
X026150Y008480D01*
X026150Y009180D01*
X026100Y009180D01*
X025600Y009680D01*
X021400Y009680D01*
X020900Y009180D01*
X020900Y008830D01*
X020870Y008830D01*
X021400Y009880D02*
X015350Y009880D01*
X015200Y010030D01*
X014850Y010380D01*
X014550Y010380D01*
X014250Y010080D01*
X008700Y010080D01*
X008550Y010230D01*
X007850Y010230D02*
X007700Y010380D01*
X007000Y010380D01*
X006850Y010230D01*
X002000Y010230D01*
X001750Y009680D02*
X009200Y009680D01*
X009325Y009555D01*
X009450Y009680D01*
X017200Y009680D01*
X017700Y009180D01*
X017700Y008830D01*
X017720Y008830D01*
X017750Y008780D01*
X017750Y008480D01*
X018250Y007980D01*
X025750Y007980D01*
X025750Y008780D01*
X025720Y008830D01*
X026550Y009880D02*
X027250Y009180D01*
X027250Y008830D01*
X027295Y008830D01*
X028050Y008830D02*
X028083Y008830D01*
X028050Y008830D02*
X028050Y009680D01*
X027050Y009680D01*
X026650Y010080D01*
X023850Y010080D01*
X023550Y010380D01*
X020150Y010380D01*
X020000Y010230D01*
X019950Y010180D01*
X016350Y010180D01*
X015950Y010580D01*
X014850Y010580D01*
X014650Y010780D01*
X012650Y010780D01*
X012600Y010730D01*
X012100Y010730D02*
X011950Y010580D01*
X011200Y010580D01*
X011000Y010780D01*
X007200Y010780D01*
X006650Y011330D01*
X007150Y011330D02*
X007500Y010980D01*
X011300Y010980D01*
X011350Y010930D01*
X011050Y011280D02*
X015750Y011280D01*
X015950Y011080D01*
X019350Y011080D01*
X019500Y010930D01*
X020000Y010930D01*
X020350Y011280D01*
X024650Y011280D01*
X025150Y010780D01*
X024100Y010430D02*
X023800Y010730D01*
X023400Y010730D01*
X022600Y010730D02*
X022450Y010580D01*
X018500Y010580D01*
X018200Y010880D01*
X015050Y010880D01*
X015000Y010930D01*
X015850Y011680D02*
X016100Y011430D01*
X015850Y011680D02*
X006200Y011680D01*
X004450Y012030D02*
X004300Y011880D01*
X002900Y011880D01*
X003800Y012580D02*
X010550Y012580D01*
X010700Y012430D01*
X011250Y011880D01*
X017600Y011880D01*
X018200Y011280D01*
X019850Y011280D01*
X018600Y011880D02*
X023600Y011880D01*
X023750Y012030D01*
X025100Y012030D01*
X026150Y012380D02*
X020450Y012380D01*
X020150Y012080D01*
X019100Y012080D01*
X018950Y012230D01*
X018850Y012330D01*
X016500Y012330D01*
X016250Y012080D01*
X012750Y012080D01*
X012600Y012230D01*
X012250Y012580D02*
X012100Y012430D01*
X012250Y012580D02*
X015950Y012580D01*
X016100Y012430D01*
X016000Y012580D01*
X019850Y012580D01*
X020000Y012430D01*
X018600Y011880D02*
X018500Y011980D01*
X018350Y011630D02*
X018000Y011980D01*
X018350Y011630D02*
X023850Y011630D01*
X032050Y011630D01*
X032050Y013780D01*
X032020Y013830D01*
X030450Y013780D02*
X030450Y013430D01*
X029800Y012780D01*
X023200Y012780D01*
X023100Y012880D01*
X023200Y013480D02*
X022500Y012780D01*
X015250Y012780D01*
X010050Y012780D01*
X009350Y013480D01*
X009350Y014180D01*
X009300Y014180D01*
X009050Y014430D01*
X007900Y014430D01*
X007300Y013830D01*
X007250Y013830D01*
X007232Y013830D01*
X008900Y013780D02*
X008933Y013830D01*
X008900Y013780D02*
X008900Y012980D01*
X001350Y012980D01*
X001350Y008480D01*
X003150Y006680D01*
X008600Y006680D01*
X010300Y004980D01*
X012000Y004980D01*
X012100Y005080D01*
X012100Y005380D01*
X012350Y005630D01*
X012650Y005630D01*
X013750Y004530D01*
X013250Y004530D02*
X012500Y005280D01*
X012500Y004780D02*
X009600Y004780D01*
X009300Y005080D01*
X008300Y005080D02*
X007700Y005080D01*
X007500Y005280D01*
X006350Y006180D02*
X006300Y006130D01*
X006350Y006180D02*
X007700Y006180D01*
X009850Y004030D01*
X015050Y004030D01*
X015200Y004180D01*
X016200Y004180D01*
X017000Y003380D01*
X017600Y003480D02*
X016850Y004230D01*
X015350Y003830D02*
X006350Y003830D01*
X006250Y003730D01*
X006700Y003480D02*
X010350Y003480D01*
X011700Y002130D01*
X011850Y003480D02*
X013250Y002080D01*
X014350Y002080D01*
X015000Y001430D01*
X015300Y001030D02*
X003850Y001030D01*
X007000Y002480D02*
X007800Y002480D01*
X007000Y002480D02*
X004950Y004530D01*
X004650Y004530D01*
X004450Y004730D01*
X007500Y007030D02*
X007650Y006880D01*
X012700Y006880D01*
X011200Y006530D02*
X009500Y006530D01*
X010650Y007780D02*
X011150Y007280D01*
X010650Y007780D02*
X005150Y007780D01*
X004850Y007580D02*
X005000Y007430D01*
X010300Y007430D01*
X008900Y007980D02*
X015250Y007980D01*
X016350Y007980D01*
X016900Y008530D01*
X016900Y008780D01*
X016933Y008830D01*
X016900Y007780D02*
X015550Y007780D01*
X016900Y007780D02*
X022450Y007780D01*
X022600Y007630D01*
X020950Y006880D02*
X015400Y006880D01*
X015250Y006580D01*
X018700Y005230D02*
X021650Y005230D01*
X021200Y005930D02*
X020250Y005930D01*
X021450Y004280D02*
X018650Y004280D01*
X018550Y003930D02*
X019400Y003930D01*
X018900Y003580D02*
X018500Y002880D01*
X018500Y001780D01*
X019100Y002380D02*
X018850Y002630D01*
X020100Y003030D02*
X020600Y003030D01*
X021250Y003680D01*
X021650Y004080D02*
X021450Y004280D01*
X021650Y004080D02*
X021650Y002780D01*
X018550Y003930D02*
X017250Y002630D01*
X016400Y002630D02*
X016050Y002280D01*
X014250Y002280D01*
X013750Y002780D01*
X014400Y002630D02*
X014550Y002780D01*
X015900Y002780D01*
X015350Y003130D02*
X015000Y003480D01*
X012600Y003480D01*
X004850Y007580D02*
X002550Y007580D01*
X002550Y008780D01*
X002508Y008830D01*
X001750Y008830D02*
X001720Y008830D01*
X001750Y008830D02*
X001750Y009680D01*
X004083Y008830D02*
X004100Y008780D01*
X004100Y008480D01*
X004600Y007980D01*
X004850Y007980D01*
X005000Y008130D01*
X005300Y008130D01*
X005450Y007980D01*
X008400Y007980D01*
X008400Y009030D01*
X008800Y009430D01*
X009050Y009430D01*
X009300Y009180D01*
X009350Y009180D01*
X009350Y008480D01*
X009650Y008180D01*
X011450Y008180D01*
X012050Y008780D01*
X012083Y008830D01*
X009720Y008830D02*
X009700Y008830D01*
X009700Y009180D01*
X009325Y009555D01*
X008933Y008830D02*
X008900Y008780D01*
X008900Y007980D01*
X007300Y009880D02*
X014550Y009880D01*
X014700Y010030D01*
X013350Y010430D02*
X013300Y010380D01*
X011100Y010380D01*
X010900Y010580D01*
X004600Y010580D01*
X007150Y010030D02*
X007300Y009880D01*
X011000Y011330D02*
X011050Y011280D01*
X010300Y012130D02*
X010050Y012380D01*
X004300Y012380D01*
X004150Y012230D01*
X004450Y012030D02*
X009100Y012030D01*
X010900Y013130D02*
X011050Y012980D01*
X011550Y012980D01*
X011575Y013005D01*
X011600Y012980D01*
X014750Y012980D01*
X014900Y013130D01*
X015250Y012780D02*
X015250Y013780D01*
X015232Y013830D01*
X016020Y013830D02*
X016050Y013780D01*
X016050Y012980D01*
X017100Y012980D01*
X017250Y013130D01*
X017720Y013830D02*
X017750Y013830D01*
X017750Y014730D01*
X025750Y014730D01*
X025750Y013830D01*
X025720Y013830D01*
X024150Y012980D02*
X023650Y013480D01*
X023650Y014180D01*
X023600Y014180D01*
X023250Y014530D01*
X021250Y014530D01*
X020900Y014180D01*
X020900Y013830D01*
X020870Y013830D01*
X023200Y013780D02*
X023200Y013480D01*
X023200Y013780D02*
X023232Y013830D01*
X024150Y012980D02*
X028900Y012980D01*
X028900Y013780D01*
X028870Y013830D01*
X030445Y013830D02*
X030450Y013780D01*
X023450Y009880D02*
X023300Y010030D01*
X023450Y009880D02*
X026550Y009880D01*
X021550Y010030D02*
X021400Y009880D01*
X018050Y010530D02*
X016500Y010530D01*
X012050Y013480D02*
X011575Y013005D01*
X012050Y013480D02*
X012050Y013780D01*
X012083Y013830D01*
X010900Y014530D02*
X010550Y014180D01*
X010550Y013830D01*
X010508Y013830D01*
X009720Y013830D02*
X009700Y013830D01*
X009700Y014180D01*
X009175Y014705D01*
X009200Y014730D01*
X017750Y014730D01*
X016550Y014380D02*
X016400Y014530D01*
X010900Y014530D01*
X009175Y014705D02*
X009150Y014730D01*
X001750Y014730D01*
X001750Y013830D01*
X001720Y013830D01*
X000950Y013780D02*
X000950Y013480D01*
X001300Y013130D01*
X001350Y013130D01*
X001350Y012980D01*
X000950Y013780D02*
X000933Y013830D01*
X027750Y006630D02*
X027850Y006730D01*
X031000Y003680D02*
X031200Y003480D01*
X031500Y003480D01*
X032050Y002930D01*
X032050Y000930D01*
X031700Y000930D01*
D17*
X026700Y001230D03*
X025900Y001580D03*
X025550Y002030D03*
X026550Y002230D03*
X023800Y001930D03*
X021650Y002780D03*
X020250Y002030D03*
X018950Y001430D03*
X018850Y002630D03*
X017600Y003480D03*
X017000Y003380D03*
X015900Y002780D03*
X016400Y002630D03*
X017250Y002630D03*
X018900Y003580D03*
X019400Y003930D03*
X018650Y004280D03*
X017300Y005030D03*
X016350Y005230D03*
X016050Y004530D03*
X016850Y004230D03*
X015350Y003830D03*
X015350Y003130D03*
X014400Y002630D03*
X013750Y002780D03*
X012600Y003480D03*
X011850Y003480D03*
X013250Y004530D03*
X013750Y004530D03*
X012500Y004780D03*
X012500Y005280D03*
X013250Y006330D03*
X012150Y006530D03*
X011200Y006530D03*
X009500Y006530D03*
X010300Y007430D03*
X011300Y007630D03*
X012850Y007280D03*
X015250Y006580D03*
X016000Y007430D03*
X015250Y007980D03*
X016900Y007780D03*
X018650Y006530D03*
X019150Y006530D03*
X019550Y006230D03*
X020250Y005930D03*
X021200Y005930D03*
X021650Y005230D03*
X023200Y004030D03*
X024200Y004030D03*
X023350Y006630D03*
X023100Y007630D03*
X022600Y007630D03*
X020800Y007230D03*
X020250Y007430D03*
X018700Y005230D03*
X018200Y005230D03*
X014850Y005230D03*
X009300Y005080D03*
X008300Y005080D03*
X007500Y005280D03*
X006300Y006130D03*
X007500Y007030D03*
X005150Y007780D03*
X007150Y010030D03*
X007850Y010230D03*
X008550Y010230D03*
X007150Y011330D03*
X006650Y011330D03*
X006200Y011680D03*
X004150Y012230D03*
X003800Y012580D03*
X002900Y011880D03*
X004600Y010580D03*
X002000Y010230D03*
X009100Y012030D03*
X010300Y012130D03*
X010700Y012430D03*
X010900Y013130D03*
X012100Y012430D03*
X012600Y012230D03*
X011000Y011330D03*
X011350Y010930D03*
X012100Y010730D03*
X012600Y010730D03*
X013350Y010430D03*
X014700Y010030D03*
X015200Y010030D03*
X016500Y010530D03*
X018050Y010530D03*
X019500Y010930D03*
X019850Y011280D03*
X018500Y011980D03*
X018000Y011980D03*
X018950Y012230D03*
X020000Y012430D03*
X017250Y013130D03*
X016100Y012430D03*
X014900Y013130D03*
X016550Y014380D03*
X016100Y011430D03*
X015000Y010930D03*
X020000Y010230D03*
X021550Y010030D03*
X022600Y010730D03*
X023400Y010730D03*
X024100Y010430D03*
X023300Y010030D03*
X025150Y010780D03*
X023850Y011630D03*
X025100Y012030D03*
X026150Y012380D03*
X023100Y012880D03*
X027850Y006730D03*
X015300Y001030D03*
X015000Y001430D03*
X011700Y002130D03*
X006700Y003480D03*
X006250Y003730D03*
X003850Y001030D03*
M02*
