%
M48
M72
T01C0.0236
T02C0.0240
T03C0.0320
T04C0.0400
%
T01
X8600Y4380
X11450Y5530
X14750Y4480
X20100Y3030
X21250Y3680
X24750Y1130
X24933Y8830
X25720Y8830
X26508Y8830
X27295Y8830
X28083Y8830
X28870Y8830
X29657Y8830
X30445Y8830
X31232Y8830
X32020Y8830
X24020Y8830
X23232Y8830
X22445Y8830
X21657Y8830
X20870Y8830
X20083Y8830
X19295Y8830
X18508Y8830
X17720Y8830
X16933Y8830
X16020Y8830
X15232Y8830
X14445Y8830
X13657Y8830
X12870Y8830
X12083Y8830
X11295Y8830
X10508Y8830
X9720Y8830
X8933Y8830
X8020Y8830
X7232Y8830
X6445Y8830
X5657Y8830
X4870Y8830
X4083Y8830
X3295Y8830
X2508Y8830
X1720Y8830
X933Y8830
X933Y13830
X1720Y13830
X2508Y13830
X3295Y13830
X4083Y13830
X4870Y13830
X5657Y13830
X6445Y13830
X7232Y13830
X8020Y13830
X8933Y13830
X9720Y13830
X10508Y13830
X11295Y13830
X12083Y13830
X12870Y13830
X13657Y13830
X14445Y13830
X15232Y13830
X16020Y13830
X16933Y13830
X17720Y13830
X18508Y13830
X19295Y13830
X20083Y13830
X20870Y13830
X21657Y13830
X22445Y13830
X23232Y13830
X24020Y13830
X24933Y13830
X25720Y13830
X26508Y13830
X27295Y13830
X28083Y13830
X28870Y13830
X29657Y13830
X30445Y13830
X31232Y13830
X32020Y13830
T02
X3850Y1030
X6700Y3480
X6250Y3730
X8300Y5080
X7500Y5280
X6300Y6130
X7500Y7030
X9500Y6530
X11200Y6530
X12150Y6530
X13250Y6330
X12850Y7280
X11300Y7630
X10300Y7430
X12500Y5280
X12500Y4780
X13250Y4530
X13750Y4530
X14850Y5230
X16050Y4530
X16850Y4230
X17000Y3380
X17600Y3480
X18900Y3580
X19400Y3930
X18650Y4280
X17300Y5030
X16350Y5230
X18200Y5230
X18700Y5230
X20250Y5930
X19550Y6230
X19150Y6530
X18650Y6530
X20250Y7430
X20800Y7230
X22600Y7630
X23100Y7630
X23350Y6630
X21200Y5930
X21650Y5230
X23200Y4030
X24200Y4030
X21650Y2780
X20250Y2030
X18950Y1430
X18850Y2630
X17250Y2630
X16400Y2630
X15900Y2780
X15350Y3130
X14400Y2630
X13750Y2780
X12600Y3480
X11850Y3480
X11700Y2130
X15000Y1430
X15300Y1030
X15350Y3830
X15250Y6580
X16000Y7430
X15250Y7980
X16900Y7780
X15200Y10030
X14700Y10030
X13350Y10430
X12600Y10730
X12100Y10730
X11350Y10930
X11000Y11330
X10300Y12130
X10700Y12430
X10900Y13130
X12100Y12430
X12600Y12230
X14900Y13130
X16100Y12430
X17250Y13130
X18950Y12230
X18500Y11980
X18000Y11980
X19850Y11280
X19500Y10930
X18050Y10530
X16500Y10530
X15000Y10930
X16100Y11430
X20000Y12430
X23100Y12880
X25100Y12030
X26150Y12380
X23850Y11630
X25150Y10780
X24100Y10430
X23400Y10730
X22600Y10730
X23300Y10030
X21550Y10030
X20000Y10230
X27850Y6730
X26550Y2230
X25550Y2030
X25900Y1580
X26700Y1230
X23800Y1930
X9300Y5080
X5150Y7780
X7150Y10030
X7850Y10230
X8550Y10230
X7150Y11330
X6650Y11330
X6200Y11680
X4150Y12230
X3800Y12580
X2900Y11880
X4600Y10580
X2000Y10230
X9100Y12030
X16550Y14380
T03
X7100Y5730
X7100Y4730
T04
X4450Y4730
X4450Y3730
X4450Y2730
X4450Y1730
X7800Y2480
X8800Y2480
X9800Y2480
X4450Y5730
X28500Y5680
X28500Y4680
X28500Y3680
X28500Y2680
X28500Y1680
X31000Y1680
X31000Y2680
X31000Y3680
X31000Y4680
X31000Y5680
M30
