G75*
G70*
%OFA0B0*%
%FSLAX24Y24*%
%IPPOS*%
%LPD*%
%AMOC8*
5,1,8,0,0,1.08239X$1,22.5*
%
%ADD10C,0.0436*%
%ADD11R,0.0197X0.0591*%
%ADD12R,0.0591X0.0512*%
%ADD13OC8,0.0630*%
%ADD14C,0.0630*%
%ADD15R,0.0512X0.0591*%
%ADD16C,0.0600*%
%ADD17C,0.0160*%
%ADD18C,0.0396*%
%ADD19C,0.0080*%
%ADD20C,0.0400*%
D10*
X000933Y008611D02*
X000933Y009048D01*
X001720Y009048D02*
X001720Y008611D01*
X002508Y008611D02*
X002508Y009048D01*
X003295Y009048D02*
X003295Y008611D01*
X004083Y008611D02*
X004083Y009048D01*
X004870Y009048D02*
X004870Y008611D01*
X005657Y008611D02*
X005657Y009048D01*
X006445Y009048D02*
X006445Y008611D01*
X007232Y008611D02*
X007232Y009048D01*
X008020Y009048D02*
X008020Y008611D01*
X008933Y008611D02*
X008933Y009048D01*
X009720Y009048D02*
X009720Y008611D01*
X010508Y008611D02*
X010508Y009048D01*
X011295Y009048D02*
X011295Y008611D01*
X012083Y008611D02*
X012083Y009048D01*
X012870Y009048D02*
X012870Y008611D01*
X013657Y008611D02*
X013657Y009048D01*
X014445Y009048D02*
X014445Y008611D01*
X015232Y008611D02*
X015232Y009048D01*
X016020Y009048D02*
X016020Y008611D01*
X016933Y008611D02*
X016933Y009048D01*
X017720Y009048D02*
X017720Y008611D01*
X018508Y008611D02*
X018508Y009048D01*
X019295Y009048D02*
X019295Y008611D01*
X020083Y008611D02*
X020083Y009048D01*
X020870Y009048D02*
X020870Y008611D01*
X021657Y008611D02*
X021657Y009048D01*
X022445Y009048D02*
X022445Y008611D01*
X023232Y008611D02*
X023232Y009048D01*
X024020Y009048D02*
X024020Y008611D01*
X024933Y008611D02*
X024933Y009048D01*
X025720Y009048D02*
X025720Y008611D01*
X026508Y008611D02*
X026508Y009048D01*
X027295Y009048D02*
X027295Y008611D01*
X028083Y008611D02*
X028083Y009048D01*
X028870Y009048D02*
X028870Y008611D01*
X029657Y008611D02*
X029657Y009048D01*
X030445Y009048D02*
X030445Y008611D01*
X031232Y008611D02*
X031232Y009048D01*
X032020Y009048D02*
X032020Y008611D01*
X032020Y013611D02*
X032020Y014048D01*
X031232Y014048D02*
X031232Y013611D01*
X030445Y013611D02*
X030445Y014048D01*
X029657Y014048D02*
X029657Y013611D01*
X028870Y013611D02*
X028870Y014048D01*
X028083Y014048D02*
X028083Y013611D01*
X027295Y013611D02*
X027295Y014048D01*
X026508Y014048D02*
X026508Y013611D01*
X025720Y013611D02*
X025720Y014048D01*
X024933Y014048D02*
X024933Y013611D01*
X024020Y013611D02*
X024020Y014048D01*
X023232Y014048D02*
X023232Y013611D01*
X022445Y013611D02*
X022445Y014048D01*
X021657Y014048D02*
X021657Y013611D01*
X020870Y013611D02*
X020870Y014048D01*
X020083Y014048D02*
X020083Y013611D01*
X019295Y013611D02*
X019295Y014048D01*
X018508Y014048D02*
X018508Y013611D01*
X017720Y013611D02*
X017720Y014048D01*
X016933Y014048D02*
X016933Y013611D01*
X016020Y013611D02*
X016020Y014048D01*
X015232Y014048D02*
X015232Y013611D01*
X014445Y013611D02*
X014445Y014048D01*
X013657Y014048D02*
X013657Y013611D01*
X012870Y013611D02*
X012870Y014048D01*
X012083Y014048D02*
X012083Y013611D01*
X011295Y013611D02*
X011295Y014048D01*
X010508Y014048D02*
X010508Y013611D01*
X009720Y013611D02*
X009720Y014048D01*
X008933Y014048D02*
X008933Y013611D01*
X008020Y013611D02*
X008020Y014048D01*
X007232Y014048D02*
X007232Y013611D01*
X006445Y013611D02*
X006445Y014048D01*
X005657Y014048D02*
X005657Y013611D01*
X004870Y013611D02*
X004870Y014048D01*
X004083Y014048D02*
X004083Y013611D01*
X003295Y013611D02*
X003295Y014048D01*
X002508Y014048D02*
X002508Y013611D01*
X001720Y013611D02*
X001720Y014048D01*
X000933Y014048D02*
X000933Y013611D01*
D11*
X013823Y005820D03*
X014138Y005820D03*
X014453Y005820D03*
X014768Y005820D03*
X015083Y005820D03*
X015398Y005820D03*
X015713Y005820D03*
X016028Y005820D03*
X016343Y005820D03*
X016657Y005820D03*
X016972Y005820D03*
X017287Y005820D03*
X017602Y005820D03*
X017917Y005820D03*
X018232Y005820D03*
X018547Y005820D03*
X018862Y005820D03*
X019177Y005820D03*
X019177Y002040D03*
X018862Y002040D03*
X018547Y002040D03*
X018232Y002040D03*
X017917Y002040D03*
X017602Y002040D03*
X017287Y002040D03*
X016972Y002040D03*
X016657Y002040D03*
X016343Y002040D03*
X016028Y002040D03*
X015713Y002040D03*
X015398Y002040D03*
X015083Y002040D03*
X014768Y002040D03*
X014453Y002040D03*
X014138Y002040D03*
X013823Y002040D03*
D12*
X012300Y002095D03*
X012300Y002765D03*
X022250Y002595D03*
X023250Y002595D03*
X024250Y002595D03*
X025250Y002595D03*
X025250Y003265D03*
X024250Y003265D03*
X023250Y003265D03*
X022250Y003265D03*
X022250Y004595D03*
X023250Y004595D03*
X024250Y004595D03*
X025250Y004595D03*
X025250Y005265D03*
X024250Y005265D03*
X023250Y005265D03*
X022250Y005265D03*
D13*
X007100Y005730D03*
D14*
X007100Y004730D03*
D15*
X009915Y005180D03*
X010585Y005180D03*
X013915Y007130D03*
X014585Y007130D03*
X017915Y007130D03*
X018585Y007130D03*
D16*
X009800Y002780D02*
X009800Y002180D01*
X008800Y002180D02*
X008800Y002780D01*
X007800Y002780D02*
X007800Y002180D01*
X004750Y001730D02*
X004150Y001730D01*
X004150Y002730D02*
X004750Y002730D01*
X004750Y003730D02*
X004150Y003730D01*
X004150Y004730D02*
X004750Y004730D01*
X004750Y005730D02*
X004150Y005730D01*
X028200Y005680D02*
X028800Y005680D01*
X030700Y005680D02*
X031300Y005680D01*
X031300Y004680D02*
X030700Y004680D01*
X028800Y004680D02*
X028200Y004680D01*
X028200Y003680D02*
X028800Y003680D01*
X030700Y003680D02*
X031300Y003680D01*
X031300Y002680D02*
X030700Y002680D01*
X028800Y002680D02*
X028200Y002680D01*
X028200Y001680D02*
X028800Y001680D01*
X030700Y001680D02*
X031300Y001680D01*
D17*
X031690Y001419D02*
X031760Y001588D01*
X031760Y001771D01*
X031690Y001941D01*
X031561Y002070D01*
X031391Y002140D01*
X030608Y002140D01*
X030439Y002070D01*
X030310Y001941D01*
X030240Y001771D01*
X030240Y001588D01*
X030310Y001419D01*
X030439Y001290D01*
X030608Y001220D01*
X031391Y001220D01*
X031561Y001290D01*
X031690Y001419D01*
X031702Y001448D02*
X032040Y001448D01*
X032040Y001290D02*
X031559Y001290D01*
X031760Y001607D02*
X032040Y001607D01*
X032040Y001765D02*
X031760Y001765D01*
X031697Y001924D02*
X032040Y001924D01*
X032040Y002082D02*
X031532Y002082D01*
X031441Y002241D02*
X032040Y002241D01*
X032040Y002399D02*
X031670Y002399D01*
X031690Y002419D02*
X031760Y002588D01*
X031760Y002771D01*
X031690Y002941D01*
X031561Y003070D01*
X031391Y003140D01*
X030608Y003140D01*
X030439Y003070D01*
X030310Y002941D01*
X030240Y002771D01*
X030240Y002588D01*
X030310Y002419D01*
X030439Y002290D01*
X030608Y002220D01*
X031391Y002220D01*
X031561Y002290D01*
X031690Y002419D01*
X031747Y002558D02*
X032040Y002558D01*
X032040Y002716D02*
X031760Y002716D01*
X031717Y002875D02*
X032040Y002875D01*
X032040Y003033D02*
X031598Y003033D01*
X031561Y003290D02*
X031391Y003220D01*
X030608Y003220D01*
X030439Y003290D01*
X030310Y003419D01*
X030240Y003588D01*
X030240Y003771D01*
X030310Y003941D01*
X030439Y004070D01*
X030608Y004140D01*
X031391Y004140D01*
X031561Y004070D01*
X031690Y003941D01*
X031760Y003771D01*
X031760Y003588D01*
X031690Y003419D01*
X031561Y003290D01*
X031621Y003350D02*
X032040Y003350D01*
X032040Y003192D02*
X027540Y003192D01*
X027540Y003350D02*
X027879Y003350D01*
X027939Y003290D02*
X028108Y003220D01*
X028891Y003220D01*
X029061Y003290D01*
X029190Y003419D01*
X029260Y003588D01*
X029260Y003771D01*
X029190Y003941D01*
X029061Y004070D01*
X028891Y004140D01*
X028108Y004140D01*
X027939Y004070D01*
X027810Y003941D01*
X027740Y003771D01*
X027740Y003588D01*
X027810Y003419D01*
X027939Y003290D01*
X027939Y003070D02*
X028108Y003140D01*
X028891Y003140D01*
X029061Y003070D01*
X029190Y002941D01*
X029260Y002771D01*
X029260Y002588D01*
X029190Y002419D01*
X029061Y002290D01*
X028891Y002220D01*
X028108Y002220D01*
X028088Y002229D01*
X027740Y001881D01*
X027740Y001182D01*
X027703Y001094D01*
X027636Y001027D01*
X027548Y000990D01*
X026969Y000990D01*
X026904Y000925D01*
X026772Y000870D01*
X026628Y000870D01*
X026496Y000925D01*
X026395Y001026D01*
X026340Y001158D01*
X026340Y001302D01*
X026395Y001434D01*
X026496Y001535D01*
X026628Y001590D01*
X026772Y001590D01*
X026904Y001535D01*
X026969Y001470D01*
X027260Y001470D01*
X027260Y001590D01*
X026260Y001590D01*
X026260Y001508D01*
X026205Y001376D01*
X026104Y001275D01*
X025972Y001220D01*
X025828Y001220D01*
X025696Y001275D01*
X025595Y001376D01*
X025540Y001508D01*
X025540Y001652D01*
X025548Y001670D01*
X025478Y001670D01*
X025346Y001725D01*
X025245Y001826D01*
X025190Y001958D01*
X025190Y002102D01*
X025222Y002179D01*
X024888Y002179D01*
X024795Y002273D01*
X024795Y002390D01*
X024705Y002390D01*
X024705Y002273D01*
X024612Y002179D01*
X024060Y002179D01*
X024105Y002134D01*
X024160Y002002D01*
X024160Y001858D01*
X024105Y001726D01*
X024040Y001661D01*
X024040Y000870D01*
X028260Y000870D01*
X028260Y001220D01*
X028108Y001220D01*
X027939Y001290D01*
X027810Y001419D01*
X027740Y001588D01*
X027740Y001771D01*
X027810Y001941D01*
X027939Y002070D01*
X028108Y002140D01*
X028891Y002140D01*
X029061Y002070D01*
X029190Y001941D01*
X029260Y001771D01*
X029260Y001588D01*
X029190Y001419D01*
X029061Y001290D01*
X028891Y001220D01*
X028740Y001220D01*
X028740Y000660D01*
X032040Y000660D01*
X032040Y008233D01*
X031944Y008233D01*
X031806Y008291D01*
X031699Y008397D01*
X031642Y008536D01*
X031642Y009123D01*
X031699Y009262D01*
X031806Y009368D01*
X031944Y009426D01*
X032040Y009426D01*
X032040Y013233D01*
X031944Y013233D01*
X031806Y013291D01*
X031699Y013397D01*
X031642Y013536D01*
X031642Y014123D01*
X031699Y014262D01*
X031806Y014368D01*
X031944Y014426D01*
X032040Y014426D01*
X032040Y014696D01*
X031023Y014696D01*
X031294Y014426D01*
X031307Y014426D01*
X031446Y014368D01*
X031553Y014262D01*
X031610Y014123D01*
X031610Y013536D01*
X031553Y013397D01*
X031446Y013291D01*
X031307Y013233D01*
X031157Y013233D01*
X031018Y013291D01*
X030912Y013397D01*
X030854Y013536D01*
X030854Y014123D01*
X030860Y014137D01*
X030860Y014181D01*
X030551Y014490D01*
X024579Y014490D01*
X024710Y014359D01*
X024719Y014368D01*
X024858Y014426D01*
X025008Y014426D01*
X025147Y014368D01*
X025254Y014262D01*
X025311Y014123D01*
X025311Y013536D01*
X025254Y013397D01*
X025147Y013291D01*
X025008Y013233D01*
X024858Y013233D01*
X024719Y013291D01*
X024613Y013397D01*
X024555Y013536D01*
X024555Y013836D01*
X024398Y013993D01*
X024398Y013536D01*
X024340Y013397D01*
X024234Y013291D01*
X024190Y013273D01*
X024190Y011750D01*
X024210Y011702D01*
X024210Y011558D01*
X024155Y011426D01*
X024054Y011325D01*
X023990Y011298D01*
X023990Y010774D01*
X024028Y010790D01*
X024121Y010790D01*
X024210Y010879D01*
X024210Y011178D01*
X024247Y011266D01*
X024314Y011333D01*
X024402Y011370D01*
X025601Y011370D01*
X026271Y012040D01*
X026222Y012020D01*
X026078Y012020D01*
X025946Y012075D01*
X025845Y012176D01*
X025790Y012308D01*
X025790Y012381D01*
X025460Y012051D01*
X025460Y011958D01*
X025405Y011826D01*
X025304Y011725D01*
X025172Y011670D01*
X025028Y011670D01*
X024896Y011725D01*
X024795Y011826D01*
X024740Y011958D01*
X024740Y012102D01*
X024795Y012234D01*
X024896Y012335D01*
X025028Y012390D01*
X025121Y012390D01*
X026170Y013439D01*
X026130Y013536D01*
X026130Y014123D01*
X026187Y014262D01*
X026294Y014368D01*
X026433Y014426D01*
X026583Y014426D01*
X026722Y014368D01*
X026828Y014262D01*
X026886Y014123D01*
X026886Y013536D01*
X026829Y013398D01*
X026932Y013501D01*
X026917Y013536D01*
X026917Y014123D01*
X026975Y014262D01*
X027081Y014368D01*
X027220Y014426D01*
X027370Y014426D01*
X027509Y014368D01*
X027616Y014262D01*
X027673Y014123D01*
X027673Y013536D01*
X027616Y013397D01*
X027509Y013291D01*
X027370Y013233D01*
X027343Y013233D01*
X026510Y012401D01*
X026510Y012308D01*
X026490Y012259D01*
X027710Y013479D01*
X027710Y013523D01*
X027705Y013536D01*
X027705Y014123D01*
X027762Y014262D01*
X027868Y014368D01*
X028007Y014426D01*
X028158Y014426D01*
X028297Y014368D01*
X028403Y014262D01*
X028461Y014123D01*
X028461Y013536D01*
X028403Y013397D01*
X028297Y013291D01*
X028158Y013233D01*
X028143Y013233D01*
X025903Y010994D01*
X025836Y010927D01*
X025748Y010890D01*
X025494Y010890D01*
X025510Y010852D01*
X025510Y010708D01*
X025455Y010576D01*
X025424Y010545D01*
X026544Y009426D01*
X026583Y009426D01*
X026722Y009368D01*
X026828Y009262D01*
X026886Y009123D01*
X026886Y008536D01*
X026828Y008397D01*
X026722Y008291D01*
X026583Y008233D01*
X026433Y008233D01*
X026294Y008291D01*
X026187Y008397D01*
X026130Y008536D01*
X026130Y009123D01*
X026141Y009150D01*
X026050Y009241D01*
X026099Y009123D01*
X026099Y008536D01*
X026041Y008397D01*
X025935Y008291D01*
X025796Y008233D01*
X025645Y008233D01*
X025506Y008291D01*
X025400Y008397D01*
X025342Y008536D01*
X025342Y009123D01*
X025400Y009262D01*
X025506Y009368D01*
X025645Y009426D01*
X025796Y009426D01*
X025914Y009377D01*
X025014Y010277D01*
X024947Y010344D01*
X024910Y010432D01*
X024910Y010511D01*
X024845Y010576D01*
X024790Y010708D01*
X024790Y010852D01*
X024806Y010890D01*
X024690Y010890D01*
X024690Y010732D01*
X024653Y010644D01*
X024460Y010451D01*
X024460Y010358D01*
X024405Y010226D01*
X024304Y010125D01*
X024172Y010070D01*
X024040Y010070D01*
X024040Y009426D01*
X024095Y009426D01*
X024234Y009368D01*
X024340Y009262D01*
X024398Y009123D01*
X024398Y009070D01*
X024555Y009070D01*
X024555Y009123D01*
X024613Y009262D01*
X024719Y009368D01*
X024858Y009426D01*
X025008Y009426D01*
X025147Y009368D01*
X025254Y009262D01*
X025311Y009123D01*
X025311Y008536D01*
X025254Y008397D01*
X025147Y008291D01*
X025008Y008233D01*
X024858Y008233D01*
X024719Y008291D01*
X024613Y008397D01*
X024555Y008536D01*
X024555Y008590D01*
X024398Y008590D01*
X024398Y008536D01*
X024340Y008397D01*
X024234Y008291D01*
X024095Y008233D01*
X024093Y008233D01*
X023940Y008081D01*
X023940Y006432D01*
X023903Y006344D01*
X023829Y006270D01*
X027651Y006270D01*
X027759Y006378D01*
X027646Y006425D01*
X027545Y006526D01*
X027490Y006658D01*
X027490Y006802D01*
X027545Y006934D01*
X027646Y007035D01*
X027778Y007090D01*
X027871Y007090D01*
X029063Y008282D01*
X028945Y008233D01*
X028795Y008233D01*
X028656Y008291D01*
X028550Y008397D01*
X028492Y008536D01*
X028492Y009123D01*
X028550Y009262D01*
X028656Y009368D01*
X028795Y009426D01*
X028945Y009426D01*
X029084Y009368D01*
X029191Y009262D01*
X029248Y009123D01*
X029248Y008536D01*
X029200Y008419D01*
X029290Y008510D01*
X029279Y008536D01*
X029279Y009123D01*
X029337Y009262D01*
X029443Y009368D01*
X029582Y009426D01*
X029733Y009426D01*
X029872Y009368D01*
X029978Y009262D01*
X030036Y009123D01*
X030036Y008536D01*
X029978Y008397D01*
X029872Y008291D01*
X029733Y008233D01*
X029693Y008233D01*
X028429Y006970D01*
X029598Y006970D01*
X029686Y006933D01*
X030086Y006533D01*
X030153Y006466D01*
X030190Y006378D01*
X030190Y005029D01*
X030299Y004920D01*
X030302Y004920D01*
X030310Y004941D01*
X030439Y005070D01*
X030608Y005140D01*
X031391Y005140D01*
X031561Y005070D01*
X031690Y004941D01*
X031760Y004771D01*
X031760Y004588D01*
X031690Y004419D01*
X031561Y004290D01*
X031391Y004220D01*
X030608Y004220D01*
X030439Y004290D01*
X030310Y004419D01*
X030302Y004440D01*
X030152Y004440D01*
X030064Y004477D01*
X029997Y004544D01*
X029747Y004794D01*
X029710Y004882D01*
X029710Y006231D01*
X029451Y006490D01*
X028549Y006490D01*
X028199Y006140D01*
X028891Y006140D01*
X029061Y006070D01*
X029190Y005941D01*
X029260Y005771D01*
X029260Y005588D01*
X029190Y005419D01*
X029061Y005290D01*
X028891Y005220D01*
X028108Y005220D01*
X027939Y005290D01*
X027810Y005419D01*
X027740Y005588D01*
X027740Y005771D01*
X027748Y005790D01*
X021949Y005790D01*
X021741Y005582D01*
X021795Y005560D01*
X021795Y005587D01*
X021888Y005681D01*
X022612Y005681D01*
X022705Y005587D01*
X022705Y005520D01*
X022795Y005520D01*
X022795Y005587D01*
X022888Y005681D01*
X023612Y005681D01*
X023705Y005587D01*
X023705Y005520D01*
X023795Y005520D01*
X023795Y005587D01*
X023888Y005681D01*
X024612Y005681D01*
X024705Y005587D01*
X024705Y005520D01*
X024795Y005520D01*
X024795Y005587D01*
X024888Y005681D01*
X025612Y005681D01*
X025705Y005587D01*
X025705Y004942D01*
X025702Y004939D01*
X025713Y004921D01*
X025725Y004875D01*
X025725Y004643D01*
X025298Y004643D01*
X025298Y004547D01*
X025298Y004159D01*
X025569Y004159D01*
X025615Y004172D01*
X025656Y004195D01*
X025689Y004229D01*
X025713Y004270D01*
X025725Y004316D01*
X025725Y004547D01*
X025298Y004547D01*
X025202Y004547D01*
X025202Y004159D01*
X024931Y004159D01*
X024885Y004172D01*
X024844Y004195D01*
X024811Y004229D01*
X024787Y004270D01*
X024775Y004316D01*
X024775Y004547D01*
X025202Y004547D01*
X025202Y004643D01*
X024775Y004643D01*
X024775Y004875D01*
X024787Y004921D01*
X024798Y004939D01*
X024795Y004942D01*
X024795Y005040D01*
X024705Y005040D01*
X024705Y004942D01*
X024693Y004930D01*
X024705Y004918D01*
X024705Y004273D01*
X024612Y004179D01*
X024528Y004179D01*
X024560Y004102D01*
X024560Y003958D01*
X024505Y003826D01*
X024490Y003811D01*
X024490Y003681D01*
X024612Y003681D01*
X024705Y003587D01*
X024705Y002942D01*
X024693Y002930D01*
X024705Y002918D01*
X024705Y002870D01*
X024795Y002870D01*
X024795Y002918D01*
X024798Y002921D01*
X024787Y002939D01*
X024775Y002985D01*
X024775Y003217D01*
X025202Y003217D01*
X025202Y003313D01*
X025202Y003701D01*
X024931Y003701D01*
X024885Y003688D01*
X024844Y003665D01*
X024811Y003631D01*
X024787Y003590D01*
X024775Y003544D01*
X024775Y003313D01*
X025202Y003313D01*
X025298Y003313D01*
X025298Y003701D01*
X025569Y003701D01*
X025615Y003688D01*
X025656Y003665D01*
X025689Y003631D01*
X025713Y003590D01*
X025725Y003544D01*
X025725Y003313D01*
X025298Y003313D01*
X025298Y003217D01*
X025725Y003217D01*
X025725Y002985D01*
X025713Y002939D01*
X025702Y002921D01*
X025705Y002918D01*
X025705Y002355D01*
X025754Y002335D01*
X025819Y002270D01*
X026190Y002270D01*
X026190Y002302D01*
X026245Y002434D01*
X026346Y002535D01*
X026478Y002590D01*
X026622Y002590D01*
X026754Y002535D01*
X026855Y002434D01*
X026910Y002302D01*
X026910Y002158D01*
X026873Y002070D01*
X027060Y002070D01*
X027060Y003828D01*
X027097Y003916D01*
X027749Y004568D01*
X027740Y004588D01*
X027740Y004771D01*
X027810Y004941D01*
X027939Y005070D01*
X028108Y005140D01*
X028891Y005140D01*
X029061Y005070D01*
X029190Y004941D01*
X029260Y004771D01*
X029260Y004588D01*
X029190Y004419D01*
X029061Y004290D01*
X028891Y004220D01*
X028108Y004220D01*
X028088Y004229D01*
X027540Y003681D01*
X027540Y002359D01*
X027749Y002568D01*
X027740Y002588D01*
X027740Y002771D01*
X027810Y002941D01*
X027939Y003070D01*
X027902Y003033D02*
X027540Y003033D01*
X027540Y002875D02*
X027783Y002875D01*
X027740Y002716D02*
X027540Y002716D01*
X027540Y002558D02*
X027738Y002558D01*
X027580Y002399D02*
X027540Y002399D01*
X027060Y002399D02*
X026870Y002399D01*
X026910Y002241D02*
X027060Y002241D01*
X027060Y002082D02*
X026878Y002082D01*
X026230Y002399D02*
X025705Y002399D01*
X025705Y002558D02*
X026400Y002558D01*
X026700Y002558D02*
X027060Y002558D01*
X027060Y002716D02*
X025705Y002716D01*
X025705Y002875D02*
X027060Y002875D01*
X027060Y003033D02*
X025725Y003033D01*
X025725Y003192D02*
X027060Y003192D01*
X027060Y003350D02*
X025725Y003350D01*
X025725Y003509D02*
X027060Y003509D01*
X027060Y003667D02*
X025652Y003667D01*
X025298Y003667D02*
X025202Y003667D01*
X025202Y003509D02*
X025298Y003509D01*
X025298Y003350D02*
X025202Y003350D01*
X024775Y003350D02*
X024705Y003350D01*
X024705Y003192D02*
X024775Y003192D01*
X024775Y003033D02*
X024705Y003033D01*
X024705Y002875D02*
X024795Y002875D01*
X024775Y003509D02*
X024705Y003509D01*
X024625Y003667D02*
X024848Y003667D01*
X024505Y003826D02*
X027060Y003826D01*
X027165Y003984D02*
X024560Y003984D01*
X024543Y004143D02*
X027323Y004143D01*
X027482Y004301D02*
X025721Y004301D01*
X025725Y004460D02*
X027640Y004460D01*
X027740Y004618D02*
X025298Y004618D01*
X025202Y004618D02*
X024705Y004618D01*
X024705Y004460D02*
X024775Y004460D01*
X024779Y004301D02*
X024705Y004301D01*
X025202Y004301D02*
X025298Y004301D01*
X025298Y004460D02*
X025202Y004460D01*
X024775Y004777D02*
X024705Y004777D01*
X024698Y004935D02*
X024795Y004935D01*
X025705Y004935D02*
X027808Y004935D01*
X027742Y004777D02*
X025725Y004777D01*
X025705Y005094D02*
X027996Y005094D01*
X028031Y005252D02*
X025705Y005252D01*
X025705Y005411D02*
X027819Y005411D01*
X027748Y005569D02*
X025705Y005569D01*
X024795Y005569D02*
X024705Y005569D01*
X023795Y005569D02*
X023705Y005569D01*
X022795Y005569D02*
X022705Y005569D01*
X021887Y005728D02*
X027740Y005728D01*
X028262Y006203D02*
X029710Y006203D01*
X029710Y006045D02*
X029086Y006045D01*
X029213Y005886D02*
X029710Y005886D01*
X029710Y005728D02*
X029260Y005728D01*
X029252Y005569D02*
X029710Y005569D01*
X029710Y005411D02*
X029181Y005411D01*
X028969Y005252D02*
X029710Y005252D01*
X029710Y005094D02*
X029004Y005094D01*
X029192Y004935D02*
X029710Y004935D01*
X029764Y004777D02*
X029258Y004777D01*
X029260Y004618D02*
X029923Y004618D01*
X030105Y004460D02*
X029207Y004460D01*
X029072Y004301D02*
X030428Y004301D01*
X030353Y003984D02*
X029147Y003984D01*
X029238Y003826D02*
X030262Y003826D01*
X030240Y003667D02*
X029260Y003667D01*
X029227Y003509D02*
X030273Y003509D01*
X030379Y003350D02*
X029121Y003350D01*
X029098Y003033D02*
X030402Y003033D01*
X030283Y002875D02*
X029217Y002875D01*
X029260Y002716D02*
X030240Y002716D01*
X030253Y002558D02*
X029247Y002558D01*
X029170Y002399D02*
X030330Y002399D01*
X030559Y002241D02*
X028941Y002241D01*
X029032Y002082D02*
X030468Y002082D01*
X030303Y001924D02*
X029197Y001924D01*
X029260Y001765D02*
X030240Y001765D01*
X030240Y001607D02*
X029260Y001607D01*
X029202Y001448D02*
X030298Y001448D01*
X030441Y001290D02*
X029059Y001290D01*
X028740Y001131D02*
X032040Y001131D01*
X032040Y000973D02*
X028740Y000973D01*
X028740Y000814D02*
X032040Y000814D01*
X028260Y000973D02*
X026952Y000973D01*
X026448Y000973D02*
X024040Y000973D01*
X024040Y001131D02*
X026351Y001131D01*
X026340Y001290D02*
X026119Y001290D01*
X026235Y001448D02*
X026409Y001448D01*
X025681Y001290D02*
X024040Y001290D01*
X024040Y001448D02*
X025565Y001448D01*
X025540Y001607D02*
X024040Y001607D01*
X024121Y001765D02*
X025306Y001765D01*
X025204Y001924D02*
X024160Y001924D01*
X024127Y002082D02*
X025190Y002082D01*
X024827Y002241D02*
X024673Y002241D01*
X027740Y001765D02*
X027740Y001765D01*
X027740Y001607D02*
X027740Y001607D01*
X027740Y001448D02*
X027798Y001448D01*
X027740Y001290D02*
X027941Y001290D01*
X027719Y001131D02*
X028260Y001131D01*
X027803Y001924D02*
X027783Y001924D01*
X027941Y002082D02*
X027968Y002082D01*
X027773Y003509D02*
X027540Y003509D01*
X027540Y003667D02*
X027740Y003667D01*
X027762Y003826D02*
X027685Y003826D01*
X027843Y003984D02*
X027853Y003984D01*
X028002Y004143D02*
X032040Y004143D01*
X032040Y003984D02*
X031647Y003984D01*
X031738Y003826D02*
X032040Y003826D01*
X032040Y003667D02*
X031760Y003667D01*
X031727Y003509D02*
X032040Y003509D01*
X032040Y004301D02*
X031572Y004301D01*
X031707Y004460D02*
X032040Y004460D01*
X032040Y004618D02*
X031760Y004618D01*
X031758Y004777D02*
X032040Y004777D01*
X032040Y004935D02*
X031692Y004935D01*
X031504Y005094D02*
X032040Y005094D01*
X032040Y005252D02*
X031517Y005252D01*
X031484Y005235D02*
X031552Y005269D01*
X031613Y005314D01*
X031666Y005367D01*
X031711Y005428D01*
X031745Y005496D01*
X031768Y005568D01*
X031780Y005642D01*
X031780Y005660D01*
X031020Y005660D01*
X031020Y005700D01*
X030980Y005700D01*
X030980Y006160D01*
X030662Y006160D01*
X030588Y006148D01*
X030516Y006125D01*
X030448Y006091D01*
X030387Y006046D01*
X030334Y005993D01*
X030289Y005932D01*
X030255Y005864D01*
X030232Y005792D01*
X030220Y005718D01*
X030220Y005700D01*
X030980Y005700D01*
X030980Y005660D01*
X031020Y005660D01*
X031020Y005200D01*
X031338Y005200D01*
X031412Y005212D01*
X031484Y005235D01*
X031698Y005411D02*
X032040Y005411D01*
X032040Y005569D02*
X031768Y005569D01*
X031780Y005700D02*
X031780Y005718D01*
X031768Y005792D01*
X031745Y005864D01*
X031711Y005932D01*
X031666Y005993D01*
X031613Y006046D01*
X031552Y006091D01*
X031484Y006125D01*
X031412Y006148D01*
X031338Y006160D01*
X031020Y006160D01*
X031020Y005700D01*
X031780Y005700D01*
X031778Y005728D02*
X032040Y005728D01*
X032040Y005886D02*
X031734Y005886D01*
X031614Y006045D02*
X032040Y006045D01*
X032040Y006203D02*
X030190Y006203D01*
X030190Y006045D02*
X030386Y006045D01*
X030266Y005886D02*
X030190Y005886D01*
X030190Y005728D02*
X030222Y005728D01*
X030220Y005660D02*
X030220Y005642D01*
X030232Y005568D01*
X030255Y005496D01*
X030289Y005428D01*
X030334Y005367D01*
X030387Y005314D01*
X030448Y005269D01*
X030516Y005235D01*
X030588Y005212D01*
X030662Y005200D01*
X030980Y005200D01*
X030980Y005660D01*
X030220Y005660D01*
X030232Y005569D02*
X030190Y005569D01*
X030190Y005411D02*
X030302Y005411D01*
X030190Y005252D02*
X030483Y005252D01*
X030496Y005094D02*
X030190Y005094D01*
X030284Y004935D02*
X030308Y004935D01*
X030980Y005252D02*
X031020Y005252D01*
X031020Y005411D02*
X030980Y005411D01*
X030980Y005569D02*
X031020Y005569D01*
X031020Y005728D02*
X030980Y005728D01*
X030980Y005886D02*
X031020Y005886D01*
X031020Y006045D02*
X030980Y006045D01*
X030190Y006362D02*
X032040Y006362D01*
X032040Y006520D02*
X030099Y006520D01*
X029941Y006679D02*
X032040Y006679D01*
X032040Y006837D02*
X029782Y006837D01*
X029579Y006362D02*
X028421Y006362D01*
X027742Y006362D02*
X023911Y006362D01*
X023940Y006520D02*
X027551Y006520D01*
X027490Y006679D02*
X023940Y006679D01*
X023940Y006837D02*
X027505Y006837D01*
X027606Y006996D02*
X023940Y006996D01*
X023940Y007154D02*
X027935Y007154D01*
X028093Y007313D02*
X023940Y007313D01*
X023940Y007471D02*
X028252Y007471D01*
X028410Y007630D02*
X023940Y007630D01*
X023940Y007788D02*
X028569Y007788D01*
X028727Y007947D02*
X023940Y007947D01*
X023964Y008105D02*
X028886Y008105D01*
X029018Y008264D02*
X029044Y008264D01*
X029201Y008422D02*
X029203Y008422D01*
X029248Y008581D02*
X029279Y008581D01*
X029279Y008739D02*
X029248Y008739D01*
X029248Y008898D02*
X029279Y008898D01*
X029279Y009056D02*
X029248Y009056D01*
X029210Y009215D02*
X029317Y009215D01*
X029455Y009373D02*
X029073Y009373D01*
X028667Y009373D02*
X028285Y009373D01*
X028297Y009368D02*
X028158Y009426D01*
X028007Y009426D01*
X027868Y009368D01*
X027762Y009262D01*
X027705Y009123D01*
X027705Y008536D01*
X027762Y008397D01*
X027868Y008291D01*
X028007Y008233D01*
X028158Y008233D01*
X028297Y008291D01*
X028403Y008397D01*
X028461Y008536D01*
X028461Y009123D01*
X028403Y009262D01*
X028297Y009368D01*
X028423Y009215D02*
X028530Y009215D01*
X028492Y009056D02*
X028461Y009056D01*
X028461Y008898D02*
X028492Y008898D01*
X028492Y008739D02*
X028461Y008739D01*
X028461Y008581D02*
X028492Y008581D01*
X028539Y008422D02*
X028413Y008422D01*
X028231Y008264D02*
X028722Y008264D01*
X029406Y007947D02*
X032040Y007947D01*
X032040Y008105D02*
X029564Y008105D01*
X029805Y008264D02*
X030297Y008264D01*
X030231Y008291D02*
X030370Y008233D01*
X030520Y008233D01*
X030659Y008291D01*
X030765Y008397D01*
X030823Y008536D01*
X030823Y009123D01*
X030765Y009262D01*
X030659Y009368D01*
X030520Y009426D01*
X030370Y009426D01*
X030231Y009368D01*
X030124Y009262D01*
X030067Y009123D01*
X030067Y008536D01*
X030124Y008397D01*
X030231Y008291D01*
X030114Y008422D02*
X029988Y008422D01*
X030036Y008581D02*
X030067Y008581D01*
X030067Y008739D02*
X030036Y008739D01*
X030036Y008898D02*
X030067Y008898D01*
X030067Y009056D02*
X030036Y009056D01*
X029998Y009215D02*
X030105Y009215D01*
X030242Y009373D02*
X029860Y009373D01*
X030648Y009373D02*
X031030Y009373D01*
X031018Y009368D02*
X030912Y009262D01*
X030854Y009123D01*
X030854Y008536D01*
X030912Y008397D01*
X031018Y008291D01*
X031157Y008233D01*
X031307Y008233D01*
X031446Y008291D01*
X031553Y008397D01*
X031610Y008536D01*
X031610Y009123D01*
X031553Y009262D01*
X031446Y009368D01*
X031307Y009426D01*
X031157Y009426D01*
X031018Y009368D01*
X030892Y009215D02*
X030785Y009215D01*
X030823Y009056D02*
X030854Y009056D01*
X030854Y008898D02*
X030823Y008898D01*
X030823Y008739D02*
X030854Y008739D01*
X030854Y008581D02*
X030823Y008581D01*
X030776Y008422D02*
X030902Y008422D01*
X031084Y008264D02*
X030593Y008264D01*
X031380Y008264D02*
X031872Y008264D01*
X031689Y008422D02*
X031563Y008422D01*
X031610Y008581D02*
X031642Y008581D01*
X031642Y008739D02*
X031610Y008739D01*
X031610Y008898D02*
X031642Y008898D01*
X031642Y009056D02*
X031610Y009056D01*
X031572Y009215D02*
X031680Y009215D01*
X031817Y009373D02*
X031435Y009373D01*
X032040Y009532D02*
X026438Y009532D01*
X026279Y009690D02*
X032040Y009690D01*
X032040Y009849D02*
X026121Y009849D01*
X025962Y010007D02*
X032040Y010007D01*
X032040Y010166D02*
X025804Y010166D01*
X025645Y010324D02*
X032040Y010324D01*
X032040Y010483D02*
X025487Y010483D01*
X025482Y010641D02*
X032040Y010641D01*
X032040Y010800D02*
X025510Y010800D01*
X025867Y010958D02*
X032040Y010958D01*
X032040Y011117D02*
X026026Y011117D01*
X026184Y011275D02*
X032040Y011275D01*
X032040Y011434D02*
X026343Y011434D01*
X026501Y011592D02*
X032040Y011592D01*
X032040Y011751D02*
X026660Y011751D01*
X026818Y011909D02*
X032040Y011909D01*
X032040Y012068D02*
X026977Y012068D01*
X027135Y012226D02*
X032040Y012226D01*
X032040Y012385D02*
X027294Y012385D01*
X027452Y012543D02*
X032040Y012543D01*
X032040Y012702D02*
X027611Y012702D01*
X027769Y012860D02*
X032040Y012860D01*
X032040Y013019D02*
X027928Y013019D01*
X028086Y013177D02*
X032040Y013177D01*
X031761Y013336D02*
X031491Y013336D01*
X031593Y013494D02*
X031659Y013494D01*
X031642Y013653D02*
X031610Y013653D01*
X031610Y013811D02*
X031642Y013811D01*
X031642Y013970D02*
X031610Y013970D01*
X031608Y014128D02*
X031644Y014128D01*
X031724Y014287D02*
X031528Y014287D01*
X031274Y014445D02*
X032040Y014445D01*
X032040Y014604D02*
X031116Y014604D01*
X030754Y014287D02*
X030741Y014287D01*
X030765Y014262D02*
X030659Y014368D01*
X030520Y014426D01*
X030370Y014426D01*
X030231Y014368D01*
X030124Y014262D01*
X030067Y014123D01*
X030067Y013536D01*
X030124Y013397D01*
X030231Y013291D01*
X030370Y013233D01*
X030520Y013233D01*
X030659Y013291D01*
X030765Y013397D01*
X030823Y013536D01*
X030823Y014123D01*
X030765Y014262D01*
X030821Y014128D02*
X030856Y014128D01*
X030854Y013970D02*
X030823Y013970D01*
X030823Y013811D02*
X030854Y013811D01*
X030854Y013653D02*
X030823Y013653D01*
X030805Y013494D02*
X030872Y013494D01*
X030974Y013336D02*
X030704Y013336D01*
X030186Y013336D02*
X029916Y013336D01*
X029872Y013291D02*
X029978Y013397D01*
X030036Y013536D01*
X030036Y014123D01*
X029978Y014262D01*
X029872Y014368D01*
X029733Y014426D01*
X029582Y014426D01*
X029443Y014368D01*
X029337Y014262D01*
X029279Y014123D01*
X029279Y013536D01*
X029337Y013397D01*
X029443Y013291D01*
X029582Y013233D01*
X029733Y013233D01*
X029872Y013291D01*
X030018Y013494D02*
X030084Y013494D01*
X030067Y013653D02*
X030036Y013653D01*
X030036Y013811D02*
X030067Y013811D01*
X030067Y013970D02*
X030036Y013970D01*
X030033Y014128D02*
X030069Y014128D01*
X030149Y014287D02*
X029953Y014287D01*
X029362Y014287D02*
X029166Y014287D01*
X029191Y014262D02*
X029084Y014368D01*
X028945Y014426D01*
X028795Y014426D01*
X028656Y014368D01*
X028550Y014262D01*
X028492Y014123D01*
X028492Y013536D01*
X028550Y013397D01*
X028656Y013291D01*
X028795Y013233D01*
X028945Y013233D01*
X029084Y013291D01*
X029191Y013397D01*
X029248Y013536D01*
X029248Y014123D01*
X029191Y014262D01*
X029246Y014128D02*
X029281Y014128D01*
X029279Y013970D02*
X029248Y013970D01*
X029248Y013811D02*
X029279Y013811D01*
X029279Y013653D02*
X029248Y013653D01*
X029231Y013494D02*
X029297Y013494D01*
X029399Y013336D02*
X029129Y013336D01*
X028611Y013336D02*
X028341Y013336D01*
X028443Y013494D02*
X028509Y013494D01*
X028492Y013653D02*
X028461Y013653D01*
X028461Y013811D02*
X028492Y013811D01*
X028492Y013970D02*
X028461Y013970D01*
X028459Y014128D02*
X028494Y014128D01*
X028574Y014287D02*
X028379Y014287D01*
X027787Y014287D02*
X027591Y014287D01*
X027671Y014128D02*
X027707Y014128D01*
X027705Y013970D02*
X027673Y013970D01*
X027673Y013811D02*
X027705Y013811D01*
X027705Y013653D02*
X027673Y013653D01*
X027656Y013494D02*
X027710Y013494D01*
X027566Y013336D02*
X027554Y013336D01*
X027408Y013177D02*
X027286Y013177D01*
X027249Y013019D02*
X027128Y013019D01*
X027091Y012860D02*
X026969Y012860D01*
X026932Y012702D02*
X026811Y012702D01*
X026774Y012543D02*
X026652Y012543D01*
X026615Y012385D02*
X026510Y012385D01*
X025964Y012068D02*
X025477Y012068D01*
X025440Y011909D02*
X026140Y011909D01*
X025981Y011751D02*
X025330Y011751D01*
X024870Y011751D02*
X024190Y011751D01*
X024190Y011909D02*
X024760Y011909D01*
X024740Y012068D02*
X024190Y012068D01*
X024190Y012226D02*
X024792Y012226D01*
X025015Y012385D02*
X024190Y012385D01*
X024190Y012543D02*
X025274Y012543D01*
X025432Y012702D02*
X024190Y012702D01*
X024190Y012860D02*
X025591Y012860D01*
X025749Y013019D02*
X024190Y013019D01*
X024190Y013177D02*
X025908Y013177D01*
X025935Y013291D02*
X025796Y013233D01*
X025645Y013233D01*
X025506Y013291D01*
X025400Y013397D01*
X025342Y013536D01*
X025342Y014123D01*
X025400Y014262D01*
X025506Y014368D01*
X025645Y014426D01*
X025796Y014426D01*
X025935Y014368D01*
X026041Y014262D01*
X026099Y014123D01*
X026099Y013536D01*
X026041Y013397D01*
X025935Y013291D01*
X025979Y013336D02*
X026066Y013336D01*
X026081Y013494D02*
X026147Y013494D01*
X026130Y013653D02*
X026099Y013653D01*
X026099Y013811D02*
X026130Y013811D01*
X026130Y013970D02*
X026099Y013970D01*
X026096Y014128D02*
X026132Y014128D01*
X026212Y014287D02*
X026016Y014287D01*
X025425Y014287D02*
X025229Y014287D01*
X025309Y014128D02*
X025344Y014128D01*
X025342Y013970D02*
X025311Y013970D01*
X025311Y013811D02*
X025342Y013811D01*
X025342Y013653D02*
X025311Y013653D01*
X025294Y013494D02*
X025360Y013494D01*
X025462Y013336D02*
X025192Y013336D01*
X024674Y013336D02*
X024278Y013336D01*
X024380Y013494D02*
X024572Y013494D01*
X024555Y013653D02*
X024398Y013653D01*
X024398Y013811D02*
X024555Y013811D01*
X024421Y013970D02*
X024398Y013970D01*
X024624Y014445D02*
X030596Y014445D01*
X026999Y014287D02*
X026804Y014287D01*
X026884Y014128D02*
X026919Y014128D01*
X026917Y013970D02*
X026886Y013970D01*
X026886Y013811D02*
X026917Y013811D01*
X026917Y013653D02*
X026886Y013653D01*
X026868Y013494D02*
X026925Y013494D01*
X025824Y012226D02*
X025635Y012226D01*
X025823Y011592D02*
X024210Y011592D01*
X024158Y011434D02*
X025664Y011434D01*
X024790Y010800D02*
X024690Y010800D01*
X024650Y010641D02*
X024818Y010641D01*
X024910Y010483D02*
X024492Y010483D01*
X024446Y010324D02*
X024967Y010324D01*
X025125Y010166D02*
X024345Y010166D01*
X024040Y010007D02*
X025284Y010007D01*
X025442Y009849D02*
X024040Y009849D01*
X024040Y009690D02*
X025601Y009690D01*
X025759Y009532D02*
X024040Y009532D01*
X024222Y009373D02*
X024730Y009373D01*
X025136Y009373D02*
X025518Y009373D01*
X025380Y009215D02*
X025273Y009215D01*
X025311Y009056D02*
X025342Y009056D01*
X025342Y008898D02*
X025311Y008898D01*
X025311Y008739D02*
X025342Y008739D01*
X025342Y008581D02*
X025311Y008581D01*
X025264Y008422D02*
X025390Y008422D01*
X025573Y008264D02*
X025081Y008264D01*
X024785Y008264D02*
X024168Y008264D01*
X024350Y008422D02*
X024602Y008422D01*
X024555Y008581D02*
X024398Y008581D01*
X024360Y009215D02*
X024593Y009215D01*
X026061Y009215D02*
X026076Y009215D01*
X026099Y009056D02*
X026130Y009056D01*
X026130Y008898D02*
X026099Y008898D01*
X026099Y008739D02*
X026130Y008739D01*
X026130Y008581D02*
X026099Y008581D01*
X026051Y008422D02*
X026177Y008422D01*
X026360Y008264D02*
X025868Y008264D01*
X026656Y008264D02*
X027147Y008264D01*
X027081Y008291D02*
X027220Y008233D01*
X027370Y008233D01*
X027509Y008291D01*
X027616Y008397D01*
X027673Y008536D01*
X027673Y009123D01*
X027616Y009262D01*
X027509Y009368D01*
X027370Y009426D01*
X027220Y009426D01*
X027081Y009368D01*
X026975Y009262D01*
X026917Y009123D01*
X026917Y008536D01*
X026975Y008397D01*
X027081Y008291D01*
X026964Y008422D02*
X026839Y008422D01*
X026886Y008581D02*
X026917Y008581D01*
X026917Y008739D02*
X026886Y008739D01*
X026886Y008898D02*
X026917Y008898D01*
X026917Y009056D02*
X026886Y009056D01*
X026848Y009215D02*
X026955Y009215D01*
X027093Y009373D02*
X026711Y009373D01*
X027498Y009373D02*
X027880Y009373D01*
X027743Y009215D02*
X027635Y009215D01*
X027673Y009056D02*
X027705Y009056D01*
X027705Y008898D02*
X027673Y008898D01*
X027673Y008739D02*
X027705Y008739D01*
X027705Y008581D02*
X027673Y008581D01*
X027626Y008422D02*
X027752Y008422D01*
X027935Y008264D02*
X027443Y008264D01*
X028930Y007471D02*
X032040Y007471D01*
X032040Y007313D02*
X028772Y007313D01*
X028613Y007154D02*
X032040Y007154D01*
X032040Y006996D02*
X028455Y006996D01*
X029089Y007630D02*
X032040Y007630D01*
X032040Y007788D02*
X029247Y007788D01*
X024130Y010800D02*
X023990Y010800D01*
X023990Y010958D02*
X024210Y010958D01*
X024210Y011117D02*
X023990Y011117D01*
X023990Y011275D02*
X024256Y011275D01*
X014310Y006675D02*
X014310Y006629D01*
X013997Y006316D01*
X013984Y006285D01*
X013945Y006295D01*
X013823Y006295D01*
X013823Y005820D01*
X013823Y005820D01*
X013823Y006295D01*
X013701Y006295D01*
X013655Y006283D01*
X013614Y006259D01*
X013608Y006253D01*
X013610Y006258D01*
X013610Y006402D01*
X013555Y006534D01*
X013490Y006599D01*
X013490Y006772D01*
X013492Y006765D01*
X013515Y006724D01*
X013549Y006691D01*
X013590Y006667D01*
X013636Y006655D01*
X013867Y006655D01*
X013867Y007082D01*
X013963Y007082D01*
X013963Y006655D01*
X014195Y006655D01*
X014241Y006667D01*
X014259Y006678D01*
X014262Y006675D01*
X014310Y006675D01*
X014201Y006520D02*
X013561Y006520D01*
X013570Y006679D02*
X013490Y006679D01*
X013867Y006679D02*
X013963Y006679D01*
X013963Y006837D02*
X013867Y006837D01*
X013867Y006996D02*
X013963Y006996D01*
X014042Y006362D02*
X013610Y006362D01*
X013823Y006203D02*
X013823Y006203D01*
X013823Y006045D02*
X013823Y006045D01*
X013823Y005886D02*
X013823Y005886D01*
X013823Y005820D02*
X013544Y005820D01*
X013544Y006115D01*
X013490Y006061D01*
X013490Y005120D01*
X013948Y005120D01*
X014036Y005083D01*
X014286Y004833D01*
X014353Y004766D01*
X014390Y004678D01*
X014390Y004279D01*
X014499Y004170D01*
X014751Y004170D01*
X015661Y005080D01*
X015598Y005143D01*
X015577Y005152D01*
X015509Y005219D01*
X015473Y005307D01*
X015473Y005364D01*
X015184Y005364D01*
X015210Y005302D01*
X015210Y005158D01*
X015155Y005026D01*
X015054Y004925D01*
X014922Y004870D01*
X014778Y004870D01*
X014646Y004925D01*
X014545Y005026D01*
X014490Y005158D01*
X014490Y005302D01*
X014508Y005344D01*
X014453Y005344D01*
X014453Y005820D01*
X014453Y005820D01*
X014453Y005344D01*
X014331Y005344D01*
X014285Y005357D01*
X014271Y005364D01*
X014004Y005364D01*
X013991Y005357D01*
X013945Y005344D01*
X013823Y005344D01*
X013823Y005820D01*
X013823Y005820D01*
X013823Y005820D01*
X013544Y005820D01*
X013544Y005501D01*
X013557Y005455D01*
X013580Y005414D01*
X013614Y005380D01*
X013655Y005357D01*
X013701Y005344D01*
X013823Y005344D01*
X013823Y005820D01*
X013823Y005728D02*
X013823Y005728D01*
X013823Y005569D02*
X013823Y005569D01*
X013823Y005411D02*
X013823Y005411D01*
X013584Y005411D02*
X013490Y005411D01*
X013490Y005569D02*
X013544Y005569D01*
X013544Y005728D02*
X013490Y005728D01*
X013490Y005886D02*
X013544Y005886D01*
X013544Y006045D02*
X013490Y006045D01*
X014453Y005728D02*
X014453Y005728D01*
X014453Y005569D02*
X014453Y005569D01*
X014453Y005411D02*
X014453Y005411D01*
X014490Y005252D02*
X013490Y005252D01*
X014012Y005094D02*
X014517Y005094D01*
X014636Y004935D02*
X014184Y004935D01*
X014343Y004777D02*
X015357Y004777D01*
X015516Y004935D02*
X015064Y004935D01*
X015183Y005094D02*
X015647Y005094D01*
X015495Y005252D02*
X015210Y005252D01*
X015199Y004618D02*
X014390Y004618D01*
X014390Y004460D02*
X015040Y004460D01*
X014882Y004301D02*
X014390Y004301D01*
X012908Y003283D02*
X013390Y002801D01*
X013390Y002708D01*
X013445Y002576D01*
X013546Y002475D01*
X013611Y002448D01*
X013564Y002402D01*
X013564Y002320D01*
X012755Y002320D01*
X012755Y002418D01*
X012752Y002421D01*
X012763Y002439D01*
X012775Y002485D01*
X012775Y002717D01*
X012348Y002717D01*
X012348Y002813D01*
X012252Y002813D01*
X012252Y003201D01*
X012080Y003201D01*
X012155Y003276D01*
X012210Y003408D01*
X012210Y003552D01*
X012155Y003684D01*
X012054Y003785D01*
X011922Y003840D01*
X011829Y003840D01*
X011240Y004429D01*
X011240Y005578D01*
X011203Y005666D01*
X009540Y007329D01*
X009540Y008277D01*
X009645Y008233D01*
X009710Y008233D01*
X009710Y007232D01*
X009747Y007144D01*
X009814Y007077D01*
X010964Y005927D01*
X011052Y005890D01*
X011651Y005890D01*
X011810Y005731D01*
X011810Y004582D01*
X011847Y004494D01*
X012360Y003981D01*
X012360Y003749D01*
X012295Y003684D01*
X012240Y003552D01*
X012240Y003408D01*
X012295Y003276D01*
X012370Y003201D01*
X012348Y003201D01*
X012348Y002813D01*
X012775Y002813D01*
X012775Y003044D01*
X012763Y003090D01*
X012739Y003131D01*
X012727Y003143D01*
X012804Y003175D01*
X012905Y003276D01*
X012908Y003283D01*
X012821Y003192D02*
X012999Y003192D01*
X013158Y003033D02*
X012775Y003033D01*
X012775Y002875D02*
X013316Y002875D01*
X013390Y002716D02*
X012775Y002716D01*
X012775Y002558D02*
X013463Y002558D01*
X013564Y002399D02*
X012755Y002399D01*
X012252Y002717D02*
X011825Y002717D01*
X011825Y002485D01*
X011830Y002466D01*
X011772Y002490D01*
X011628Y002490D01*
X011496Y002435D01*
X011395Y002334D01*
X011340Y002202D01*
X011340Y002058D01*
X011395Y001926D01*
X011496Y001825D01*
X011628Y001770D01*
X011772Y001770D01*
X011845Y001800D01*
X011845Y001773D01*
X011938Y001679D01*
X012662Y001679D01*
X012755Y001773D01*
X012755Y001840D01*
X013564Y001840D01*
X013564Y001679D01*
X013637Y001606D01*
X013601Y001570D01*
X009190Y001570D01*
X009190Y001920D01*
X009260Y002088D01*
X009260Y002871D01*
X009190Y003041D01*
X009061Y003170D01*
X008891Y003240D01*
X008708Y003240D01*
X008539Y003170D01*
X008410Y003041D01*
X008340Y002871D01*
X008340Y002088D01*
X008410Y001919D01*
X008539Y001790D01*
X008708Y001720D01*
X008710Y001720D01*
X008710Y001282D01*
X008747Y001194D01*
X008814Y001127D01*
X008902Y001090D01*
X013748Y001090D01*
X013836Y001127D01*
X013903Y001194D01*
X014294Y001585D01*
X014675Y001585D01*
X014640Y001502D01*
X014640Y001358D01*
X014695Y001226D01*
X014796Y001125D01*
X014928Y001070D01*
X014940Y001070D01*
X014940Y000958D01*
X014977Y000870D01*
X007340Y000870D01*
X007340Y003581D01*
X007986Y004227D01*
X008053Y004294D01*
X008090Y004382D01*
X008090Y004781D01*
X008096Y004775D01*
X008228Y004720D01*
X008372Y004720D01*
X008504Y004775D01*
X008569Y004840D01*
X009031Y004840D01*
X009096Y004775D01*
X009228Y004720D01*
X009372Y004720D01*
X009504Y004775D01*
X009511Y004782D01*
X009515Y004774D01*
X009549Y004741D01*
X009590Y004717D01*
X009636Y004705D01*
X009867Y004705D01*
X009867Y005132D01*
X009963Y005132D01*
X009963Y004705D01*
X010195Y004705D01*
X010241Y004717D01*
X010259Y004728D01*
X010260Y004727D01*
X010260Y003779D01*
X009721Y003240D01*
X009708Y003240D01*
X009539Y003170D01*
X009410Y003041D01*
X009340Y002871D01*
X009340Y002088D01*
X009410Y001919D01*
X009539Y001790D01*
X009708Y001720D01*
X009891Y001720D01*
X010061Y001790D01*
X010190Y001919D01*
X010260Y002088D01*
X010260Y002871D01*
X010193Y003033D01*
X011825Y003033D01*
X011825Y003044D02*
X011825Y002813D01*
X012252Y002813D01*
X012252Y002717D01*
X012252Y002875D02*
X012348Y002875D01*
X012348Y003033D02*
X012252Y003033D01*
X012252Y003192D02*
X012348Y003192D01*
X012264Y003350D02*
X012186Y003350D01*
X012210Y003509D02*
X012240Y003509D01*
X012288Y003667D02*
X012162Y003667D01*
X012360Y003826D02*
X011957Y003826D01*
X011685Y003984D02*
X012357Y003984D01*
X012198Y004143D02*
X011527Y004143D01*
X011368Y004301D02*
X012040Y004301D01*
X011881Y004460D02*
X011240Y004460D01*
X011240Y004618D02*
X011810Y004618D01*
X011810Y004777D02*
X011240Y004777D01*
X011240Y004935D02*
X011810Y004935D01*
X011810Y005094D02*
X011240Y005094D01*
X011240Y005252D02*
X011810Y005252D01*
X011810Y005411D02*
X011240Y005411D01*
X011240Y005569D02*
X011810Y005569D01*
X011810Y005728D02*
X011142Y005728D01*
X010983Y005886D02*
X011655Y005886D01*
X010846Y006045D02*
X010825Y006045D01*
X010688Y006203D02*
X010666Y006203D01*
X010529Y006362D02*
X010508Y006362D01*
X010371Y006520D02*
X010349Y006520D01*
X010212Y006679D02*
X010191Y006679D01*
X010054Y006837D02*
X010032Y006837D01*
X009895Y006996D02*
X009874Y006996D01*
X009742Y007154D02*
X009715Y007154D01*
X009710Y007313D02*
X009557Y007313D01*
X009540Y007471D02*
X009710Y007471D01*
X009710Y007630D02*
X009540Y007630D01*
X009540Y007788D02*
X009710Y007788D01*
X009710Y007947D02*
X009540Y007947D01*
X009540Y008105D02*
X009710Y008105D01*
X009573Y008264D02*
X009540Y008264D01*
X008220Y007471D02*
X008090Y007471D01*
X008090Y007601D02*
X009140Y006551D01*
X009140Y006458D01*
X009195Y006326D01*
X009296Y006225D01*
X009428Y006170D01*
X009572Y006170D01*
X009704Y006225D01*
X009805Y006326D01*
X009823Y006368D01*
X010555Y005635D01*
X010262Y005635D01*
X010259Y005632D01*
X010241Y005643D01*
X010195Y005655D01*
X009963Y005655D01*
X009963Y005228D01*
X009867Y005228D01*
X009867Y005655D01*
X009636Y005655D01*
X009590Y005643D01*
X009549Y005619D01*
X009515Y005586D01*
X009492Y005545D01*
X009479Y005499D01*
X009479Y005395D01*
X009372Y005440D01*
X009228Y005440D01*
X009096Y005385D01*
X009031Y005320D01*
X008569Y005320D01*
X008504Y005385D01*
X008372Y005440D01*
X008228Y005440D01*
X008096Y005385D01*
X008090Y005379D01*
X008090Y007601D01*
X007610Y007630D02*
X007240Y007630D01*
X007081Y007788D02*
X007603Y007788D01*
X007610Y007781D02*
X007610Y007374D01*
X007572Y007390D01*
X007479Y007390D01*
X006740Y008129D01*
X006740Y008372D01*
X006765Y008397D01*
X006823Y008536D01*
X006823Y009123D01*
X006765Y009262D01*
X006659Y009368D01*
X006520Y009426D01*
X006370Y009426D01*
X006231Y009368D01*
X006124Y009262D01*
X006067Y009123D01*
X006067Y008536D01*
X006124Y008397D01*
X006231Y008291D01*
X006260Y008279D01*
X006260Y008259D01*
X006020Y008499D01*
X006036Y008536D01*
X006036Y009123D01*
X005978Y009262D01*
X005872Y009368D01*
X005733Y009426D01*
X005582Y009426D01*
X005443Y009368D01*
X005337Y009262D01*
X005279Y009123D01*
X005279Y008536D01*
X005337Y008397D01*
X005443Y008291D01*
X005582Y008233D01*
X005607Y008233D01*
X006910Y006931D01*
X006910Y006682D01*
X006947Y006594D01*
X007310Y006231D01*
X007310Y006220D01*
X007305Y006225D01*
X007100Y006225D01*
X007100Y005730D01*
X007100Y005730D01*
X007100Y005235D01*
X007140Y005235D01*
X007140Y005208D01*
X007141Y005205D01*
X007006Y005205D01*
X006831Y005133D01*
X006697Y004999D01*
X006625Y004824D01*
X006625Y004636D01*
X006697Y004461D01*
X006831Y004327D01*
X006860Y004315D01*
X006860Y004129D01*
X006587Y003857D01*
X006555Y003934D01*
X006454Y004035D01*
X006322Y004090D01*
X006178Y004090D01*
X006046Y004035D01*
X005981Y003970D01*
X005148Y003970D01*
X005140Y003991D01*
X005011Y004120D01*
X004841Y004190D01*
X004058Y004190D01*
X003889Y004120D01*
X003760Y003991D01*
X003690Y003821D01*
X003690Y003638D01*
X003760Y003469D01*
X003889Y003340D01*
X004058Y003270D01*
X004841Y003270D01*
X005011Y003340D01*
X005140Y003469D01*
X005148Y003490D01*
X005981Y003490D01*
X006046Y003425D01*
X006123Y003393D01*
X004897Y002167D01*
X004841Y002190D01*
X004058Y002190D01*
X003889Y002120D01*
X003760Y001991D01*
X003690Y001821D01*
X003690Y001638D01*
X003760Y001469D01*
X003839Y001390D01*
X003829Y001390D01*
X003090Y002129D01*
X003090Y008287D01*
X003220Y008233D01*
X003370Y008233D01*
X003410Y008250D01*
X003410Y008179D01*
X003197Y007966D01*
X003160Y007878D01*
X003160Y003382D01*
X003197Y003294D01*
X003264Y003227D01*
X003690Y002801D01*
X003690Y002638D01*
X003760Y002469D01*
X003889Y002340D01*
X004058Y002270D01*
X004841Y002270D01*
X005011Y002340D01*
X005140Y002469D01*
X005210Y002638D01*
X005210Y002821D01*
X005140Y002991D01*
X005011Y003120D01*
X004841Y003190D01*
X004058Y003190D01*
X004003Y003167D01*
X003640Y003529D01*
X003640Y007731D01*
X003786Y007877D01*
X003853Y007944D01*
X003890Y008032D01*
X003890Y008282D01*
X003910Y008274D01*
X003910Y008232D01*
X003947Y008144D01*
X004014Y008077D01*
X005940Y006151D01*
X005940Y006058D01*
X005995Y005926D01*
X006096Y005825D01*
X006228Y005770D01*
X006372Y005770D01*
X006504Y005825D01*
X006605Y005926D01*
X006605Y005730D01*
X007100Y005730D01*
X007100Y005730D01*
X007100Y005730D01*
X007100Y006225D01*
X006895Y006225D01*
X006612Y005942D01*
X006660Y006058D01*
X006660Y006202D01*
X006605Y006334D01*
X006504Y006435D01*
X006372Y006490D01*
X006279Y006490D01*
X005312Y007457D01*
X005354Y007475D01*
X005455Y007576D01*
X005510Y007708D01*
X005510Y007852D01*
X005455Y007984D01*
X005354Y008085D01*
X005222Y008140D01*
X005190Y008140D01*
X005190Y008397D01*
X005191Y008397D01*
X005248Y008536D01*
X005248Y009123D01*
X005191Y009262D01*
X005084Y009368D01*
X004945Y009426D01*
X004795Y009426D01*
X004656Y009368D01*
X004550Y009262D01*
X004492Y009123D01*
X004492Y008536D01*
X004550Y008397D01*
X004656Y008291D01*
X004710Y008269D01*
X004710Y008059D01*
X004390Y008379D01*
X004390Y008384D01*
X004403Y008397D01*
X004461Y008536D01*
X004461Y009123D01*
X004403Y009262D01*
X004297Y009368D01*
X004248Y009389D01*
X006179Y011320D01*
X006272Y011320D01*
X006290Y011328D01*
X006290Y011258D01*
X006345Y011126D01*
X006446Y011025D01*
X006578Y010970D01*
X006722Y010970D01*
X006854Y011025D01*
X006900Y011071D01*
X006946Y011025D01*
X007078Y010970D01*
X007222Y010970D01*
X007260Y010986D01*
X007260Y010374D01*
X007222Y010390D01*
X007078Y010390D01*
X006946Y010335D01*
X006845Y010234D01*
X006790Y010102D01*
X006790Y009958D01*
X006845Y009826D01*
X006910Y009761D01*
X006910Y009258D01*
X006854Y009123D01*
X006854Y008536D01*
X006912Y008397D01*
X007018Y008291D01*
X007157Y008233D01*
X007307Y008233D01*
X007360Y008255D01*
X007360Y008082D01*
X007397Y007994D01*
X007464Y007927D01*
X007610Y007781D01*
X007444Y007947D02*
X006923Y007947D01*
X006764Y008105D02*
X007360Y008105D01*
X007084Y008264D02*
X006740Y008264D01*
X006776Y008422D02*
X006902Y008422D01*
X006854Y008581D02*
X006823Y008581D01*
X006823Y008739D02*
X006854Y008739D01*
X006854Y008898D02*
X006823Y008898D01*
X006823Y009056D02*
X006854Y009056D01*
X006892Y009215D02*
X006785Y009215D01*
X006910Y009373D02*
X006648Y009373D01*
X006910Y009532D02*
X004391Y009532D01*
X004285Y009373D02*
X004667Y009373D01*
X005073Y009373D02*
X005455Y009373D01*
X005860Y009373D02*
X006242Y009373D01*
X006105Y009215D02*
X005998Y009215D01*
X006036Y009056D02*
X006067Y009056D01*
X006067Y008898D02*
X006036Y008898D01*
X006036Y008739D02*
X006067Y008739D01*
X006067Y008581D02*
X006036Y008581D01*
X006097Y008422D02*
X006114Y008422D01*
X006256Y008264D02*
X006260Y008264D01*
X005894Y007947D02*
X005471Y007947D01*
X005510Y007788D02*
X006053Y007788D01*
X006211Y007630D02*
X005477Y007630D01*
X005345Y007471D02*
X006370Y007471D01*
X006528Y007313D02*
X005457Y007313D01*
X005615Y007154D02*
X006687Y007154D01*
X006845Y006996D02*
X005774Y006996D01*
X005932Y006837D02*
X006910Y006837D01*
X006912Y006679D02*
X006091Y006679D01*
X006249Y006520D02*
X007021Y006520D01*
X007179Y006362D02*
X006578Y006362D01*
X006659Y006203D02*
X006873Y006203D01*
X006714Y006045D02*
X006654Y006045D01*
X006605Y005886D02*
X006565Y005886D01*
X006605Y005730D02*
X006605Y005525D01*
X006895Y005235D01*
X007100Y005235D01*
X007100Y005730D01*
X006605Y005730D01*
X006605Y005728D02*
X004470Y005728D01*
X004470Y005710D02*
X004470Y005750D01*
X004430Y005750D01*
X004430Y006210D01*
X004112Y006210D01*
X004038Y006198D01*
X003966Y006175D01*
X003898Y006141D01*
X003837Y006096D01*
X003784Y006043D01*
X003739Y005982D01*
X003705Y005914D01*
X003682Y005842D01*
X003670Y005768D01*
X003670Y005750D01*
X004430Y005750D01*
X004430Y005710D01*
X004470Y005710D01*
X005230Y005710D01*
X005230Y005692D01*
X005218Y005618D01*
X005195Y005546D01*
X005161Y005478D01*
X005116Y005417D01*
X005063Y005364D01*
X005002Y005319D01*
X004934Y005285D01*
X004862Y005262D01*
X004788Y005250D01*
X004470Y005250D01*
X004470Y005710D01*
X004470Y005750D02*
X005230Y005750D01*
X005230Y005768D01*
X005218Y005842D01*
X005195Y005914D01*
X005161Y005982D01*
X005116Y006043D01*
X005063Y006096D01*
X005002Y006141D01*
X004934Y006175D01*
X004862Y006198D01*
X004788Y006210D01*
X004470Y006210D01*
X004470Y005750D01*
X004430Y005728D02*
X003640Y005728D01*
X003670Y005710D02*
X003670Y005692D01*
X003682Y005618D01*
X003705Y005546D01*
X003739Y005478D01*
X003784Y005417D01*
X003837Y005364D01*
X003898Y005319D01*
X003966Y005285D01*
X004038Y005262D01*
X004112Y005250D01*
X004430Y005250D01*
X004430Y005710D01*
X003670Y005710D01*
X003698Y005569D02*
X003640Y005569D01*
X003640Y005411D02*
X003791Y005411D01*
X003640Y005252D02*
X004100Y005252D01*
X004058Y005190D02*
X003889Y005120D01*
X003760Y004991D01*
X003690Y004821D01*
X003690Y004638D01*
X003760Y004469D01*
X003889Y004340D01*
X004058Y004270D01*
X004841Y004270D01*
X005011Y004340D01*
X005140Y004469D01*
X005210Y004638D01*
X005210Y004821D01*
X005140Y004991D01*
X005011Y005120D01*
X004841Y005190D01*
X004058Y005190D01*
X003863Y005094D02*
X003640Y005094D01*
X003640Y004935D02*
X003737Y004935D01*
X003690Y004777D02*
X003640Y004777D01*
X003640Y004618D02*
X003698Y004618D01*
X003640Y004460D02*
X003770Y004460D01*
X003640Y004301D02*
X003984Y004301D01*
X003944Y004143D02*
X003640Y004143D01*
X003640Y003984D02*
X003757Y003984D01*
X003692Y003826D02*
X003640Y003826D01*
X003640Y003667D02*
X003690Y003667D01*
X003661Y003509D02*
X003744Y003509D01*
X003819Y003350D02*
X003879Y003350D01*
X003978Y003192D02*
X005922Y003192D01*
X006081Y003350D02*
X005021Y003350D01*
X005098Y003033D02*
X005764Y003033D01*
X005605Y002875D02*
X005188Y002875D01*
X005210Y002716D02*
X005447Y002716D01*
X005288Y002558D02*
X005176Y002558D01*
X005130Y002399D02*
X005070Y002399D01*
X004971Y002241D02*
X003090Y002241D01*
X003090Y002399D02*
X003830Y002399D01*
X003724Y002558D02*
X003090Y002558D01*
X003090Y002716D02*
X003690Y002716D01*
X003616Y002875D02*
X003090Y002875D01*
X003090Y003033D02*
X003458Y003033D01*
X003299Y003192D02*
X003090Y003192D01*
X003090Y003350D02*
X003173Y003350D01*
X003160Y003509D02*
X003090Y003509D01*
X003090Y003667D02*
X003160Y003667D01*
X003160Y003826D02*
X003090Y003826D01*
X003090Y003984D02*
X003160Y003984D01*
X003160Y004143D02*
X003090Y004143D01*
X003090Y004301D02*
X003160Y004301D01*
X003160Y004460D02*
X003090Y004460D01*
X003090Y004618D02*
X003160Y004618D01*
X003160Y004777D02*
X003090Y004777D01*
X003090Y004935D02*
X003160Y004935D01*
X003160Y005094D02*
X003090Y005094D01*
X003090Y005252D02*
X003160Y005252D01*
X003160Y005411D02*
X003090Y005411D01*
X003090Y005569D02*
X003160Y005569D01*
X003160Y005728D02*
X003090Y005728D01*
X003090Y005886D02*
X003160Y005886D01*
X003160Y006045D02*
X003090Y006045D01*
X003090Y006203D02*
X003160Y006203D01*
X003160Y006362D02*
X003090Y006362D01*
X003090Y006520D02*
X003160Y006520D01*
X003160Y006679D02*
X003090Y006679D01*
X003090Y006837D02*
X003160Y006837D01*
X003160Y006996D02*
X003090Y006996D01*
X003090Y007154D02*
X003160Y007154D01*
X003160Y007313D02*
X003090Y007313D01*
X003090Y007471D02*
X003160Y007471D01*
X003160Y007630D02*
X003090Y007630D01*
X003090Y007788D02*
X003160Y007788D01*
X003188Y007947D02*
X003090Y007947D01*
X003090Y008105D02*
X003336Y008105D01*
X003147Y008264D02*
X003090Y008264D01*
X003890Y008264D02*
X003910Y008264D01*
X003890Y008105D02*
X003986Y008105D01*
X003854Y007947D02*
X004144Y007947D01*
X004303Y007788D02*
X003697Y007788D01*
X003640Y007630D02*
X004461Y007630D01*
X004620Y007471D02*
X003640Y007471D01*
X003640Y007313D02*
X004778Y007313D01*
X004937Y007154D02*
X003640Y007154D01*
X003640Y006996D02*
X005095Y006996D01*
X005254Y006837D02*
X003640Y006837D01*
X003640Y006679D02*
X005412Y006679D01*
X005571Y006520D02*
X003640Y006520D01*
X003640Y006362D02*
X005729Y006362D01*
X005888Y006203D02*
X004832Y006203D01*
X005114Y006045D02*
X005946Y006045D01*
X006035Y005886D02*
X005204Y005886D01*
X005202Y005569D02*
X006605Y005569D01*
X006719Y005411D02*
X005109Y005411D01*
X004800Y005252D02*
X006878Y005252D01*
X006792Y005094D02*
X005037Y005094D01*
X005163Y004935D02*
X006671Y004935D01*
X006625Y004777D02*
X005210Y004777D01*
X005202Y004618D02*
X006632Y004618D01*
X006699Y004460D02*
X005130Y004460D01*
X004916Y004301D02*
X006860Y004301D01*
X006860Y004143D02*
X004956Y004143D01*
X005143Y003984D02*
X005995Y003984D01*
X006505Y003984D02*
X006715Y003984D01*
X007426Y003667D02*
X010148Y003667D01*
X010260Y003826D02*
X007585Y003826D01*
X007743Y003984D02*
X010260Y003984D01*
X010260Y004143D02*
X007902Y004143D01*
X008056Y004301D02*
X010260Y004301D01*
X010260Y004460D02*
X008090Y004460D01*
X008090Y004618D02*
X010260Y004618D01*
X009963Y004777D02*
X009867Y004777D01*
X009867Y004935D02*
X009963Y004935D01*
X009963Y005094D02*
X009867Y005094D01*
X009867Y005252D02*
X009963Y005252D01*
X009963Y005411D02*
X009867Y005411D01*
X009867Y005569D02*
X009963Y005569D01*
X009506Y005569D02*
X008090Y005569D01*
X008090Y005411D02*
X008157Y005411D01*
X008443Y005411D02*
X009157Y005411D01*
X009443Y005411D02*
X009479Y005411D01*
X010305Y005886D02*
X008090Y005886D01*
X008090Y005728D02*
X010463Y005728D01*
X010146Y006045D02*
X008090Y006045D01*
X008090Y006203D02*
X009349Y006203D01*
X009180Y006362D02*
X008090Y006362D01*
X008090Y006520D02*
X009140Y006520D01*
X009012Y006679D02*
X008090Y006679D01*
X008090Y006837D02*
X008854Y006837D01*
X008695Y006996D02*
X008090Y006996D01*
X008090Y007154D02*
X008537Y007154D01*
X008378Y007313D02*
X008090Y007313D01*
X007610Y007471D02*
X007398Y007471D01*
X005736Y008105D02*
X005306Y008105D01*
X005190Y008264D02*
X005510Y008264D01*
X005327Y008422D02*
X005201Y008422D01*
X005248Y008581D02*
X005279Y008581D01*
X005279Y008739D02*
X005248Y008739D01*
X005248Y008898D02*
X005279Y008898D01*
X005279Y009056D02*
X005248Y009056D01*
X005210Y009215D02*
X005317Y009215D01*
X004530Y009215D02*
X004423Y009215D01*
X004461Y009056D02*
X004492Y009056D01*
X004492Y008898D02*
X004461Y008898D01*
X004461Y008739D02*
X004492Y008739D01*
X004492Y008581D02*
X004461Y008581D01*
X004413Y008422D02*
X004539Y008422D01*
X004506Y008264D02*
X004710Y008264D01*
X004710Y008105D02*
X004664Y008105D01*
X004549Y009690D02*
X006910Y009690D01*
X006836Y009849D02*
X004708Y009849D01*
X004866Y010007D02*
X006790Y010007D01*
X006816Y010166D02*
X005025Y010166D01*
X005183Y010324D02*
X006935Y010324D01*
X007260Y010483D02*
X005342Y010483D01*
X005500Y010641D02*
X007260Y010641D01*
X007260Y010800D02*
X005659Y010800D01*
X005817Y010958D02*
X007260Y010958D01*
X006354Y011117D02*
X005976Y011117D01*
X006134Y011275D02*
X006290Y011275D01*
X009820Y006362D02*
X009829Y006362D01*
X009988Y006203D02*
X009651Y006203D01*
X007100Y006203D02*
X007100Y006203D01*
X007100Y006045D02*
X007100Y006045D01*
X007100Y005886D02*
X007100Y005886D01*
X007100Y005728D02*
X007100Y005728D01*
X007100Y005569D02*
X007100Y005569D01*
X007100Y005411D02*
X007100Y005411D01*
X007100Y005252D02*
X007100Y005252D01*
X008090Y004777D02*
X008094Y004777D01*
X008506Y004777D02*
X009094Y004777D01*
X009506Y004777D02*
X009514Y004777D01*
X010740Y004725D02*
X010760Y004725D01*
X010760Y004282D01*
X010797Y004194D01*
X010864Y004127D01*
X011490Y003501D01*
X011490Y003408D01*
X011545Y003276D01*
X011646Y003175D01*
X011778Y003120D01*
X011854Y003120D01*
X011837Y003090D01*
X011825Y003044D01*
X011825Y002875D02*
X010259Y002875D01*
X010260Y002716D02*
X011825Y002716D01*
X011825Y002558D02*
X010260Y002558D01*
X010260Y002399D02*
X011460Y002399D01*
X011356Y002241D02*
X010260Y002241D01*
X010257Y002082D02*
X011340Y002082D01*
X011397Y001924D02*
X010192Y001924D01*
X010000Y001765D02*
X011853Y001765D01*
X012747Y001765D02*
X013564Y001765D01*
X013637Y001607D02*
X009190Y001607D01*
X009190Y001765D02*
X009600Y001765D01*
X009408Y001924D02*
X009192Y001924D01*
X009257Y002082D02*
X009343Y002082D01*
X009340Y002241D02*
X009260Y002241D01*
X009260Y002399D02*
X009340Y002399D01*
X009340Y002558D02*
X009260Y002558D01*
X009260Y002716D02*
X009340Y002716D01*
X009341Y002875D02*
X009259Y002875D01*
X009193Y003033D02*
X009407Y003033D01*
X009591Y003192D02*
X009009Y003192D01*
X008591Y003192D02*
X008009Y003192D01*
X008061Y003170D02*
X007891Y003240D01*
X007708Y003240D01*
X007539Y003170D01*
X007410Y003041D01*
X007340Y002871D01*
X007340Y002088D01*
X007410Y001919D01*
X007539Y001790D01*
X007708Y001720D01*
X007891Y001720D01*
X008061Y001790D01*
X008190Y001919D01*
X008260Y002088D01*
X008260Y002871D01*
X008190Y003041D01*
X008061Y003170D01*
X008193Y003033D02*
X008407Y003033D01*
X008341Y002875D02*
X008259Y002875D01*
X008260Y002716D02*
X008340Y002716D01*
X008340Y002558D02*
X008260Y002558D01*
X008260Y002399D02*
X008340Y002399D01*
X008340Y002241D02*
X008260Y002241D01*
X008257Y002082D02*
X008343Y002082D01*
X008408Y001924D02*
X008192Y001924D01*
X008000Y001765D02*
X008600Y001765D01*
X008710Y001607D02*
X007340Y001607D01*
X007340Y001765D02*
X007600Y001765D01*
X007408Y001924D02*
X007340Y001924D01*
X007340Y002082D02*
X007343Y002082D01*
X007340Y002241D02*
X007340Y002241D01*
X007340Y002399D02*
X007340Y002399D01*
X007340Y002558D02*
X007340Y002558D01*
X007340Y002716D02*
X007340Y002716D01*
X007340Y002875D02*
X007341Y002875D01*
X007340Y003033D02*
X007407Y003033D01*
X007340Y003192D02*
X007591Y003192D01*
X007340Y003350D02*
X009831Y003350D01*
X009989Y003509D02*
X007340Y003509D01*
X010193Y003033D02*
X010703Y003544D01*
X010740Y003632D01*
X010740Y004725D01*
X010740Y004618D02*
X010760Y004618D01*
X010760Y004460D02*
X010740Y004460D01*
X010740Y004301D02*
X010760Y004301D01*
X010740Y004143D02*
X010848Y004143D01*
X010740Y003984D02*
X011007Y003984D01*
X011165Y003826D02*
X010740Y003826D01*
X010740Y003667D02*
X011324Y003667D01*
X011482Y003509D02*
X010668Y003509D01*
X010509Y003350D02*
X011514Y003350D01*
X011629Y003192D02*
X010351Y003192D01*
X008710Y001448D02*
X007340Y001448D01*
X007340Y001290D02*
X008710Y001290D01*
X008810Y001131D02*
X007340Y001131D01*
X007340Y000973D02*
X014940Y000973D01*
X014790Y001131D02*
X013840Y001131D01*
X013999Y001290D02*
X014669Y001290D01*
X014640Y001448D02*
X014157Y001448D01*
X021772Y005569D02*
X021795Y005569D01*
X004470Y005569D02*
X004430Y005569D01*
X004430Y005411D02*
X004470Y005411D01*
X004470Y005252D02*
X004430Y005252D01*
X004430Y005886D02*
X004470Y005886D01*
X004470Y006045D02*
X004430Y006045D01*
X004430Y006203D02*
X004470Y006203D01*
X004068Y006203D02*
X003640Y006203D01*
X003640Y006045D02*
X003786Y006045D01*
X003696Y005886D02*
X003640Y005886D01*
X003851Y002082D02*
X003137Y002082D01*
X003296Y001924D02*
X003732Y001924D01*
X003690Y001765D02*
X003454Y001765D01*
X003613Y001607D02*
X003703Y001607D01*
X003771Y001448D02*
X003781Y001448D01*
D18*
X008600Y004380D03*
X011450Y005530D03*
X014750Y004480D03*
X020100Y003030D03*
X021250Y003680D03*
X024750Y001130D03*
D19*
X003850Y001030D02*
X002850Y002030D01*
X002850Y011880D01*
X002900Y011880D01*
X002850Y011880D02*
X002850Y013180D01*
X002550Y013480D01*
X002550Y013780D01*
X002508Y013830D01*
X003295Y013830D02*
X003300Y013780D01*
X003350Y013730D01*
X003350Y013030D01*
X003800Y012580D01*
X004150Y012230D02*
X004150Y013730D01*
X004100Y013780D01*
X004083Y013830D01*
X004870Y013830D02*
X004900Y013780D01*
X005000Y013680D01*
X005000Y013380D01*
X006650Y011730D01*
X006650Y011330D01*
X007150Y011330D02*
X007150Y011530D01*
X006500Y012180D01*
X006500Y013730D01*
X006450Y013780D01*
X006445Y013830D01*
X007232Y013830D02*
X007250Y013780D01*
X007250Y013480D01*
X007300Y013430D01*
X007300Y013280D01*
X007500Y013080D01*
X007500Y009880D01*
X007450Y009830D01*
X007450Y009330D01*
X007600Y009180D01*
X007600Y008130D01*
X007850Y007880D01*
X007850Y004430D01*
X007100Y003680D01*
X007100Y000630D01*
X015400Y000630D01*
X016250Y001480D01*
X016300Y001780D01*
X016300Y002030D01*
X016343Y002040D01*
X016650Y002080D02*
X016657Y002040D01*
X016700Y002030D01*
X016700Y001730D01*
X017800Y000630D01*
X020850Y000630D01*
X020850Y006080D01*
X021300Y006530D01*
X021300Y006630D01*
X023350Y006630D01*
X023500Y006280D02*
X023700Y006480D01*
X023700Y008180D01*
X023900Y008380D01*
X023900Y008680D01*
X024000Y008780D01*
X024020Y008830D01*
X024050Y008830D01*
X024900Y008830D01*
X024933Y008830D01*
X023800Y009330D02*
X023650Y009180D01*
X023650Y008530D01*
X023500Y008380D01*
X023500Y007280D01*
X022950Y007280D01*
X022600Y007630D01*
X023100Y007630D02*
X022500Y008230D01*
X022500Y008430D01*
X022450Y008480D01*
X022450Y008780D01*
X022445Y008830D01*
X022400Y008830D01*
X022350Y008880D01*
X022350Y009230D01*
X021550Y010030D01*
X021850Y010580D02*
X020950Y010580D01*
X020950Y010680D01*
X020000Y011630D01*
X019450Y011630D01*
X019450Y011430D01*
X018200Y010180D01*
X017700Y010180D01*
X017700Y011630D01*
X018850Y011630D01*
X019300Y012080D01*
X019300Y012730D01*
X019950Y013380D01*
X019950Y013680D01*
X020050Y013780D01*
X020083Y013830D01*
X020750Y013930D02*
X020750Y014280D01*
X020300Y014730D01*
X012950Y014730D01*
X012950Y013480D01*
X012870Y013830D01*
X012900Y013780D01*
X012900Y013480D01*
X012950Y013430D01*
X012950Y011580D01*
X012100Y010730D01*
X012150Y010280D02*
X012600Y010730D01*
X013350Y010430D02*
X015225Y012305D01*
X015550Y011980D01*
X015550Y010030D01*
X015775Y009805D01*
X016500Y010530D01*
X017350Y010180D02*
X017350Y008480D01*
X017900Y007930D01*
X017900Y007130D01*
X017915Y007130D01*
X017950Y007130D01*
X018100Y007480D01*
X018200Y007480D01*
X018300Y007580D01*
X019000Y007580D01*
X019000Y007530D01*
X019250Y007280D01*
X019250Y006630D01*
X019150Y006530D01*
X018650Y006530D02*
X018650Y007080D01*
X018600Y007130D01*
X018585Y007130D01*
X017950Y007130D02*
X017950Y006580D01*
X018200Y006330D01*
X018200Y005830D01*
X018232Y005820D01*
X017950Y005780D02*
X017917Y005820D01*
X017950Y005780D02*
X017950Y005480D01*
X018200Y005230D01*
X018600Y005330D02*
X018700Y005230D01*
X018600Y005330D02*
X018600Y005730D01*
X018550Y005780D01*
X018547Y005820D01*
X018862Y005820D02*
X018900Y005780D01*
X018900Y005530D01*
X019050Y005380D01*
X019050Y004130D01*
X018900Y003980D01*
X018900Y003580D01*
X018700Y003230D02*
X018450Y003480D01*
X017600Y003480D01*
X017000Y003380D02*
X017600Y002780D01*
X017600Y002080D01*
X017602Y002040D01*
X017287Y002040D02*
X017250Y002080D01*
X017250Y002630D01*
X016650Y002380D02*
X016650Y002080D01*
X016972Y002040D02*
X017000Y002030D01*
X017000Y001780D01*
X017050Y001680D01*
X017650Y001080D01*
X020600Y001080D01*
X020600Y006580D01*
X018550Y008630D01*
X018550Y008780D01*
X018508Y008830D01*
X018550Y008830D01*
X018550Y009980D01*
X019500Y010930D01*
X019850Y010580D02*
X019850Y011280D01*
X018550Y012030D02*
X018500Y011980D01*
X018550Y012030D02*
X018550Y013780D01*
X018508Y013830D01*
X018500Y013830D01*
X017900Y014430D01*
X016550Y014430D01*
X016550Y014380D01*
X016933Y013830D02*
X016900Y013780D01*
X016800Y013680D01*
X016800Y013430D01*
X016100Y012730D01*
X016100Y012430D01*
X015225Y012305D02*
X014500Y013030D01*
X014500Y013430D01*
X014450Y013480D01*
X014450Y013780D01*
X014445Y013830D01*
X014900Y013130D02*
X016400Y011630D01*
X017700Y011630D01*
X018000Y011980D02*
X018000Y012380D01*
X017250Y013130D01*
X018950Y013180D02*
X018950Y012230D01*
X019650Y012130D02*
X018050Y010530D01*
X017350Y010180D02*
X016100Y011430D01*
X015000Y010930D02*
X014750Y010680D01*
X014750Y010030D01*
X014700Y010030D01*
X015200Y009530D01*
X015200Y008830D01*
X015232Y008830D01*
X015250Y008780D01*
X015250Y008480D01*
X015600Y008130D01*
X015600Y007380D01*
X015850Y007130D01*
X015850Y006580D01*
X015450Y006180D01*
X015450Y005880D01*
X015400Y005830D01*
X015398Y005820D01*
X015650Y005730D02*
X015700Y005780D01*
X015713Y005820D01*
X015713Y005355D01*
X015725Y005355D01*
X016000Y005080D01*
X014850Y003930D01*
X014400Y003930D01*
X014150Y004180D01*
X014150Y004630D01*
X013900Y004880D01*
X013250Y004880D01*
X013250Y006330D01*
X013250Y006880D01*
X013500Y007130D01*
X013500Y007480D01*
X014450Y008430D01*
X014450Y008780D01*
X014445Y008830D01*
X013657Y008830D02*
X013650Y008780D01*
X013650Y008430D01*
X013200Y007980D01*
X013200Y007130D01*
X012900Y006830D01*
X012900Y005180D01*
X012500Y004780D01*
X012550Y004780D01*
X012900Y004430D01*
X012900Y003630D01*
X013750Y002780D01*
X014000Y002480D02*
X014400Y002480D01*
X014400Y002630D01*
X014400Y002480D02*
X014450Y002480D01*
X014450Y002080D01*
X014453Y002040D01*
X014750Y002080D02*
X014768Y002040D01*
X014750Y002080D02*
X014750Y002930D01*
X013250Y004430D01*
X013250Y004530D01*
X013750Y004530D02*
X013750Y004230D01*
X015050Y002930D01*
X015050Y002080D01*
X015083Y002040D01*
X015350Y002080D02*
X015398Y002040D01*
X015350Y002080D02*
X015350Y003130D01*
X015900Y002780D02*
X017300Y004180D01*
X017300Y005030D01*
X017650Y005280D02*
X018650Y004280D01*
X019400Y003930D02*
X019900Y004430D01*
X019900Y006980D01*
X018900Y007980D01*
X018100Y007980D01*
X018100Y008080D01*
X017800Y008380D01*
X017800Y008430D01*
X017750Y008480D01*
X017750Y008780D01*
X017720Y008830D01*
X016700Y008330D02*
X016400Y008630D01*
X016400Y009180D01*
X015775Y009805D01*
X015950Y009280D02*
X015200Y010030D01*
X015950Y009280D02*
X015950Y009230D01*
X016000Y009180D01*
X016000Y008830D01*
X016020Y008830D01*
X016050Y008780D01*
X016050Y008480D01*
X016100Y008430D01*
X016100Y008280D01*
X016350Y008030D01*
X016350Y005830D01*
X016343Y005820D01*
X016600Y005730D02*
X016600Y005480D01*
X016350Y005230D01*
X016000Y005080D02*
X016850Y004230D01*
X016050Y004530D02*
X015350Y003830D01*
X016400Y002630D02*
X016650Y002380D01*
X016028Y002040D02*
X016000Y002030D01*
X016000Y001780D01*
X015950Y001680D01*
X015300Y001030D01*
X015400Y001430D02*
X015000Y001430D01*
X015400Y001430D02*
X015650Y001680D01*
X015700Y001780D01*
X015700Y002030D01*
X015713Y002040D01*
X014138Y002040D02*
X014100Y002030D01*
X014150Y001780D01*
X013700Y001330D01*
X008950Y001330D01*
X008950Y002330D01*
X008800Y002480D01*
X009800Y002480D02*
X009800Y002980D01*
X010500Y003680D01*
X010500Y005130D01*
X010550Y005180D01*
X010585Y005180D01*
X011000Y005530D02*
X009300Y007230D01*
X009300Y009180D01*
X009000Y009480D01*
X009000Y011630D01*
X008750Y011880D01*
X008750Y012480D01*
X009650Y013380D01*
X009650Y013430D01*
X009700Y013480D01*
X009700Y013780D01*
X009720Y013830D01*
X010400Y013680D02*
X010400Y013430D01*
X009100Y012130D01*
X009100Y012030D01*
X010300Y012130D02*
X010350Y012130D01*
X010350Y009380D01*
X010150Y009180D01*
X010150Y008530D01*
X009950Y008330D01*
X009950Y007280D01*
X011100Y006130D01*
X011750Y006130D01*
X012050Y005830D01*
X012050Y004630D01*
X012600Y004080D01*
X012600Y003480D01*
X011850Y003480D02*
X011000Y004330D01*
X011000Y005530D01*
X012500Y005280D02*
X012500Y009180D01*
X012950Y009630D01*
X012950Y011580D01*
X012600Y012230D02*
X011350Y010980D01*
X011350Y010930D01*
X011350Y009230D01*
X011300Y009180D01*
X011300Y008830D01*
X011295Y008830D01*
X011300Y008780D01*
X011300Y008430D01*
X011650Y008080D01*
X011650Y007030D01*
X012150Y006530D01*
X011200Y006530D02*
X011200Y007530D01*
X011300Y007630D01*
X010450Y007580D02*
X010300Y007430D01*
X010450Y007580D02*
X010450Y008430D01*
X010500Y008480D01*
X010500Y008780D01*
X010508Y008830D01*
X010550Y008830D01*
X010600Y008880D01*
X010600Y009230D01*
X011000Y009630D01*
X011000Y011330D01*
X010350Y012130D02*
X010350Y012580D01*
X010900Y013130D01*
X011250Y012980D02*
X011250Y013780D01*
X011295Y013830D01*
X011650Y014180D02*
X011100Y014730D01*
X009000Y014730D01*
X009000Y014230D01*
X008950Y014180D01*
X008950Y013830D01*
X008933Y013830D01*
X008150Y013680D02*
X008150Y013430D01*
X008550Y013030D01*
X008550Y010230D01*
X007850Y010230D02*
X008900Y009180D01*
X008900Y008830D01*
X008933Y008830D01*
X008050Y008780D02*
X008050Y008480D01*
X008100Y008430D01*
X008100Y007930D01*
X009500Y006530D01*
X007550Y006330D02*
X007550Y005330D01*
X007500Y005280D01*
X008300Y005080D02*
X009300Y005080D01*
X007100Y004730D02*
X007100Y004030D01*
X006625Y003555D01*
X006700Y003480D01*
X006625Y003555D02*
X004950Y001880D01*
X004950Y001730D01*
X004450Y001730D01*
X004450Y002730D02*
X003950Y002730D01*
X003950Y002880D01*
X003400Y003430D01*
X003400Y007830D01*
X003650Y008080D01*
X003650Y009130D01*
X006200Y011680D01*
X004600Y010580D02*
X004600Y010430D01*
X003400Y009230D01*
X003400Y008930D01*
X003300Y008830D01*
X003295Y008830D01*
X004083Y008830D02*
X004100Y008780D01*
X004100Y008480D01*
X004150Y008430D01*
X004150Y008280D01*
X006300Y006130D01*
X007150Y006730D02*
X007550Y006330D01*
X007150Y006730D02*
X007150Y007030D01*
X005750Y008430D01*
X005750Y008730D01*
X005700Y008780D01*
X005657Y008830D01*
X004950Y008730D02*
X004950Y007980D01*
X005150Y007780D01*
X006500Y008030D02*
X007500Y007030D01*
X006500Y008030D02*
X006500Y008730D01*
X006450Y008780D01*
X006445Y008830D01*
X007150Y008880D02*
X007150Y010030D01*
X007150Y008880D02*
X007200Y008830D01*
X007232Y008830D01*
X008020Y008830D02*
X008050Y008780D01*
X004950Y008730D02*
X004900Y008780D01*
X004870Y008830D01*
X002000Y010230D02*
X001050Y009280D01*
X001050Y008930D01*
X000950Y008830D01*
X000933Y008830D01*
X010700Y012430D02*
X011250Y012980D01*
X011650Y012880D02*
X011650Y014180D01*
X010508Y013830D02*
X010500Y013780D01*
X010400Y013680D01*
X011650Y012880D02*
X012100Y012430D01*
X008150Y013680D02*
X008050Y013780D01*
X008020Y013830D01*
X012150Y010280D02*
X012150Y008880D01*
X012100Y008830D01*
X012083Y008830D01*
X012850Y008780D02*
X012850Y008480D01*
X012800Y008430D01*
X012800Y007330D01*
X012850Y007280D01*
X014550Y007130D02*
X014550Y006530D01*
X014200Y006180D01*
X014200Y005880D01*
X014150Y005830D01*
X014138Y005820D01*
X014768Y005820D02*
X014800Y005780D01*
X014800Y005280D01*
X014850Y005230D01*
X015083Y005820D02*
X015100Y005830D01*
X015100Y006480D01*
X015250Y006630D01*
X015250Y006580D01*
X015250Y007980D01*
X016000Y007430D02*
X016000Y005830D01*
X016028Y005820D01*
X016600Y005730D02*
X016650Y005780D01*
X016657Y005820D01*
X016950Y005830D02*
X016972Y005820D01*
X016950Y005830D02*
X016950Y007680D01*
X016900Y007780D01*
X017250Y007930D02*
X016950Y008230D01*
X016700Y008230D01*
X016700Y008330D01*
X017250Y007930D02*
X017250Y005830D01*
X017287Y005820D01*
X017602Y005820D02*
X017650Y005780D01*
X017650Y005280D01*
X019177Y005820D02*
X019200Y005830D01*
X019550Y006180D01*
X019550Y006230D01*
X020100Y005780D02*
X020250Y005930D01*
X020100Y005780D02*
X020100Y003980D01*
X019400Y003230D01*
X018700Y003230D01*
X018550Y003030D02*
X020100Y003030D01*
X018850Y002630D02*
X018600Y002380D01*
X018600Y002130D01*
X018550Y002080D01*
X018547Y002040D01*
X018232Y002040D02*
X018232Y002712D01*
X018550Y003030D01*
X018862Y002040D02*
X018900Y002030D01*
X018900Y001780D01*
X018950Y001430D01*
X019200Y002030D02*
X019177Y002040D01*
X019200Y002030D02*
X020250Y002030D01*
X021650Y002780D02*
X021800Y002630D01*
X022250Y002630D01*
X022250Y002595D01*
X022250Y002630D02*
X023250Y002630D01*
X023250Y002595D01*
X023250Y002630D02*
X024250Y002630D01*
X024250Y002595D01*
X024250Y002630D02*
X025250Y002630D01*
X025250Y002595D01*
X025550Y002030D02*
X026550Y002030D01*
X026550Y002230D01*
X026150Y001830D02*
X027300Y001830D01*
X027300Y003780D01*
X028200Y004680D01*
X028500Y004680D01*
X029950Y004930D02*
X030200Y004680D01*
X031000Y004680D01*
X029950Y004930D02*
X029950Y006330D01*
X029550Y006730D01*
X028450Y006730D01*
X027750Y006030D01*
X021850Y006030D01*
X021250Y005430D01*
X021250Y003680D01*
X022250Y003265D02*
X022250Y004595D01*
X023250Y004595D02*
X023250Y004030D01*
X023200Y004030D01*
X023250Y004030D02*
X023250Y003265D01*
X024250Y003265D02*
X024250Y004030D01*
X024200Y004030D01*
X024250Y004030D02*
X024250Y004595D01*
X024250Y005265D02*
X024250Y005280D01*
X025250Y005280D01*
X025250Y005265D01*
X024250Y005280D02*
X023250Y005280D01*
X023250Y005265D01*
X023250Y005280D02*
X022250Y005280D01*
X022250Y005265D01*
X022250Y005230D01*
X021650Y005230D01*
X021200Y005930D02*
X021550Y006280D01*
X023500Y006280D01*
X021300Y006630D02*
X021300Y008080D01*
X021650Y008430D01*
X021650Y008780D01*
X021657Y008830D01*
X020870Y008830D02*
X020850Y008780D01*
X020800Y008730D01*
X020800Y007230D01*
X020250Y007430D02*
X019300Y008380D01*
X019300Y008780D01*
X019295Y008830D01*
X019300Y008830D01*
X019300Y009180D01*
X019350Y009230D01*
X019350Y010080D01*
X019850Y010580D01*
X020000Y010230D02*
X020050Y010180D01*
X020050Y008830D01*
X020083Y008830D01*
X023232Y008830D02*
X023250Y008830D01*
X023300Y008880D01*
X023300Y010030D01*
X022600Y010730D01*
X022050Y010780D02*
X021850Y010580D01*
X022050Y010780D02*
X022050Y011080D01*
X023050Y011080D01*
X023400Y010730D01*
X024100Y010430D02*
X024450Y010780D01*
X024450Y011130D01*
X025700Y011130D01*
X027950Y013380D01*
X027950Y013680D01*
X028050Y013780D01*
X028083Y013830D01*
X027295Y013830D02*
X027250Y013780D01*
X027200Y013730D01*
X027200Y013430D01*
X026150Y012380D01*
X026500Y013430D02*
X025100Y012030D01*
X023950Y011730D02*
X023950Y013430D01*
X024000Y013480D01*
X024000Y013780D01*
X024020Y013830D01*
X023600Y014130D02*
X023600Y013480D01*
X023450Y013330D01*
X023450Y012630D01*
X023250Y012430D01*
X020000Y012430D01*
X019650Y012130D02*
X019650Y012780D01*
X022350Y012780D01*
X022775Y013205D01*
X022600Y013380D01*
X022600Y013630D01*
X022450Y013780D01*
X022445Y013830D01*
X023232Y013830D02*
X023250Y013830D01*
X023250Y014180D01*
X023300Y014230D01*
X023300Y014730D01*
X030650Y014730D01*
X031100Y014280D01*
X031100Y013930D01*
X031200Y013830D01*
X031232Y013830D01*
X026508Y013830D02*
X026500Y013780D01*
X026500Y013430D01*
X024933Y013830D02*
X024900Y013830D01*
X024300Y014430D01*
X023800Y014430D01*
X023800Y014330D01*
X023600Y014130D01*
X022775Y013205D02*
X023100Y012880D01*
X023950Y011730D02*
X023850Y011630D01*
X023750Y011530D01*
X023750Y010280D01*
X023800Y010230D01*
X023800Y009330D01*
X025150Y010480D02*
X025150Y010780D01*
X025150Y010480D02*
X026400Y009230D01*
X026400Y008930D01*
X026500Y008830D01*
X026508Y008830D01*
X027850Y006730D02*
X029550Y008430D01*
X029550Y008680D01*
X029650Y008780D01*
X029657Y008830D01*
X019200Y013430D02*
X019200Y013730D01*
X019250Y013780D01*
X019295Y013830D01*
X019200Y013430D02*
X018950Y013180D01*
X020750Y013930D02*
X020850Y013830D01*
X020870Y013830D01*
X012870Y008830D02*
X012850Y008780D01*
X014550Y007130D02*
X014585Y007130D01*
X006250Y003730D02*
X004450Y003730D01*
X011700Y002130D02*
X012300Y002130D01*
X012300Y002095D01*
X012300Y002080D01*
X013800Y002080D01*
X013823Y002040D01*
X013850Y002080D01*
X013850Y002380D01*
X013900Y002380D01*
X014000Y002480D01*
X023800Y001930D02*
X023800Y000630D01*
X028500Y000630D01*
X028500Y001680D01*
X027500Y001980D02*
X027500Y001230D01*
X026700Y001230D01*
X026150Y001830D02*
X025900Y001580D01*
X027500Y001980D02*
X028200Y002680D01*
X028500Y002680D01*
D20*
X026550Y002230D03*
X025550Y002030D03*
X025900Y001580D03*
X026700Y001230D03*
X023800Y001930D03*
X021650Y002780D03*
X020250Y002030D03*
X018950Y001430D03*
X018850Y002630D03*
X017600Y003480D03*
X017000Y003380D03*
X015900Y002780D03*
X016400Y002630D03*
X017250Y002630D03*
X018900Y003580D03*
X019400Y003930D03*
X018650Y004280D03*
X017300Y005030D03*
X016350Y005230D03*
X016050Y004530D03*
X016850Y004230D03*
X015350Y003830D03*
X015350Y003130D03*
X014400Y002630D03*
X013750Y002780D03*
X012600Y003480D03*
X011850Y003480D03*
X013250Y004530D03*
X013750Y004530D03*
X012500Y004780D03*
X012500Y005280D03*
X013250Y006330D03*
X012150Y006530D03*
X011200Y006530D03*
X009500Y006530D03*
X010300Y007430D03*
X011300Y007630D03*
X012850Y007280D03*
X015250Y006580D03*
X016000Y007430D03*
X015250Y007980D03*
X016900Y007780D03*
X018650Y006530D03*
X019150Y006530D03*
X019550Y006230D03*
X020250Y005930D03*
X021200Y005930D03*
X021650Y005230D03*
X023200Y004030D03*
X024200Y004030D03*
X023350Y006630D03*
X023100Y007630D03*
X022600Y007630D03*
X020800Y007230D03*
X020250Y007430D03*
X018700Y005230D03*
X018200Y005230D03*
X014850Y005230D03*
X009300Y005080D03*
X008300Y005080D03*
X007500Y005280D03*
X006300Y006130D03*
X007500Y007030D03*
X005150Y007780D03*
X007150Y010030D03*
X007850Y010230D03*
X008550Y010230D03*
X007150Y011330D03*
X006650Y011330D03*
X006200Y011680D03*
X004150Y012230D03*
X003800Y012580D03*
X002900Y011880D03*
X004600Y010580D03*
X002000Y010230D03*
X009100Y012030D03*
X010300Y012130D03*
X010700Y012430D03*
X010900Y013130D03*
X012100Y012430D03*
X012600Y012230D03*
X011000Y011330D03*
X011350Y010930D03*
X012100Y010730D03*
X012600Y010730D03*
X013350Y010430D03*
X014700Y010030D03*
X015200Y010030D03*
X016500Y010530D03*
X018050Y010530D03*
X019500Y010930D03*
X019850Y011280D03*
X018500Y011980D03*
X018000Y011980D03*
X018950Y012230D03*
X020000Y012430D03*
X017250Y013130D03*
X016100Y012430D03*
X014900Y013130D03*
X016550Y014380D03*
X016100Y011430D03*
X015000Y010930D03*
X020000Y010230D03*
X021550Y010030D03*
X022600Y010730D03*
X023400Y010730D03*
X024100Y010430D03*
X023300Y010030D03*
X025150Y010780D03*
X023850Y011630D03*
X025100Y012030D03*
X026150Y012380D03*
X023100Y012880D03*
X027850Y006730D03*
X015300Y001030D03*
X015000Y001430D03*
X011700Y002130D03*
X006700Y003480D03*
X006250Y003730D03*
X003850Y001030D03*
M02*
