G75*
G70*
%OFA0B0*%
%FSLAX24Y24*%
%IPPOS*%
%LPD*%
%AMOC8*
5,1,8,0,0,1.08239X$1,22.5*
%
%ADD10C,0.0516*%
%ADD11R,0.0277X0.0671*%
%ADD12R,0.0671X0.0592*%
%ADD13OC8,0.0710*%
%ADD14C,0.0710*%
%ADD15R,0.0592X0.0671*%
%ADD16C,0.0680*%
%ADD17C,0.0476*%
%ADD18C,0.0480*%
D10*
X000933Y008611D02*
X000933Y009048D01*
X001720Y009048D02*
X001720Y008611D01*
X002508Y008611D02*
X002508Y009048D01*
X003295Y009048D02*
X003295Y008611D01*
X004083Y008611D02*
X004083Y009048D01*
X004870Y009048D02*
X004870Y008611D01*
X005657Y008611D02*
X005657Y009048D01*
X006445Y009048D02*
X006445Y008611D01*
X007232Y008611D02*
X007232Y009048D01*
X008020Y009048D02*
X008020Y008611D01*
X008933Y008611D02*
X008933Y009048D01*
X009720Y009048D02*
X009720Y008611D01*
X010508Y008611D02*
X010508Y009048D01*
X011295Y009048D02*
X011295Y008611D01*
X012083Y008611D02*
X012083Y009048D01*
X012870Y009048D02*
X012870Y008611D01*
X013657Y008611D02*
X013657Y009048D01*
X014445Y009048D02*
X014445Y008611D01*
X015232Y008611D02*
X015232Y009048D01*
X016020Y009048D02*
X016020Y008611D01*
X016933Y008611D02*
X016933Y009048D01*
X017720Y009048D02*
X017720Y008611D01*
X018508Y008611D02*
X018508Y009048D01*
X019295Y009048D02*
X019295Y008611D01*
X020083Y008611D02*
X020083Y009048D01*
X020870Y009048D02*
X020870Y008611D01*
X021657Y008611D02*
X021657Y009048D01*
X022445Y009048D02*
X022445Y008611D01*
X023232Y008611D02*
X023232Y009048D01*
X024020Y009048D02*
X024020Y008611D01*
X024933Y008611D02*
X024933Y009048D01*
X025720Y009048D02*
X025720Y008611D01*
X026508Y008611D02*
X026508Y009048D01*
X027295Y009048D02*
X027295Y008611D01*
X028083Y008611D02*
X028083Y009048D01*
X028870Y009048D02*
X028870Y008611D01*
X029657Y008611D02*
X029657Y009048D01*
X030445Y009048D02*
X030445Y008611D01*
X031232Y008611D02*
X031232Y009048D01*
X032020Y009048D02*
X032020Y008611D01*
X032020Y013611D02*
X032020Y014048D01*
X031232Y014048D02*
X031232Y013611D01*
X030445Y013611D02*
X030445Y014048D01*
X029657Y014048D02*
X029657Y013611D01*
X028870Y013611D02*
X028870Y014048D01*
X028083Y014048D02*
X028083Y013611D01*
X027295Y013611D02*
X027295Y014048D01*
X026508Y014048D02*
X026508Y013611D01*
X025720Y013611D02*
X025720Y014048D01*
X024933Y014048D02*
X024933Y013611D01*
X024020Y013611D02*
X024020Y014048D01*
X023232Y014048D02*
X023232Y013611D01*
X022445Y013611D02*
X022445Y014048D01*
X021657Y014048D02*
X021657Y013611D01*
X020870Y013611D02*
X020870Y014048D01*
X020083Y014048D02*
X020083Y013611D01*
X019295Y013611D02*
X019295Y014048D01*
X018508Y014048D02*
X018508Y013611D01*
X017720Y013611D02*
X017720Y014048D01*
X016933Y014048D02*
X016933Y013611D01*
X016020Y013611D02*
X016020Y014048D01*
X015232Y014048D02*
X015232Y013611D01*
X014445Y013611D02*
X014445Y014048D01*
X013657Y014048D02*
X013657Y013611D01*
X012870Y013611D02*
X012870Y014048D01*
X012083Y014048D02*
X012083Y013611D01*
X011295Y013611D02*
X011295Y014048D01*
X010508Y014048D02*
X010508Y013611D01*
X009720Y013611D02*
X009720Y014048D01*
X008933Y014048D02*
X008933Y013611D01*
X008020Y013611D02*
X008020Y014048D01*
X007232Y014048D02*
X007232Y013611D01*
X006445Y013611D02*
X006445Y014048D01*
X005657Y014048D02*
X005657Y013611D01*
X004870Y013611D02*
X004870Y014048D01*
X004083Y014048D02*
X004083Y013611D01*
X003295Y013611D02*
X003295Y014048D01*
X002508Y014048D02*
X002508Y013611D01*
X001720Y013611D02*
X001720Y014048D01*
X000933Y014048D02*
X000933Y013611D01*
D11*
X013823Y005820D03*
X014138Y005820D03*
X014453Y005820D03*
X014768Y005820D03*
X015083Y005820D03*
X015398Y005820D03*
X015713Y005820D03*
X016028Y005820D03*
X016343Y005820D03*
X016657Y005820D03*
X016972Y005820D03*
X017287Y005820D03*
X017602Y005820D03*
X017917Y005820D03*
X018232Y005820D03*
X018547Y005820D03*
X018862Y005820D03*
X019177Y005820D03*
X019177Y002040D03*
X018862Y002040D03*
X018547Y002040D03*
X018232Y002040D03*
X017917Y002040D03*
X017602Y002040D03*
X017287Y002040D03*
X016972Y002040D03*
X016657Y002040D03*
X016343Y002040D03*
X016028Y002040D03*
X015713Y002040D03*
X015398Y002040D03*
X015083Y002040D03*
X014768Y002040D03*
X014453Y002040D03*
X014138Y002040D03*
X013823Y002040D03*
D12*
X012300Y002095D03*
X012300Y002765D03*
X022250Y002595D03*
X023250Y002595D03*
X024250Y002595D03*
X025250Y002595D03*
X025250Y003265D03*
X024250Y003265D03*
X023250Y003265D03*
X022250Y003265D03*
X022250Y004595D03*
X023250Y004595D03*
X024250Y004595D03*
X025250Y004595D03*
X025250Y005265D03*
X024250Y005265D03*
X023250Y005265D03*
X022250Y005265D03*
D13*
X007100Y005730D03*
D14*
X007100Y004730D03*
D15*
X009915Y005180D03*
X010585Y005180D03*
X013915Y007130D03*
X014585Y007130D03*
X017915Y007130D03*
X018585Y007130D03*
D16*
X009800Y002780D02*
X009800Y002180D01*
X008800Y002180D02*
X008800Y002780D01*
X007800Y002780D02*
X007800Y002180D01*
X004750Y001730D02*
X004150Y001730D01*
X004150Y002730D02*
X004750Y002730D01*
X004750Y003730D02*
X004150Y003730D01*
X004150Y004730D02*
X004750Y004730D01*
X004750Y005730D02*
X004150Y005730D01*
X028200Y005680D02*
X028800Y005680D01*
X030700Y005680D02*
X031300Y005680D01*
X031300Y004680D02*
X030700Y004680D01*
X028800Y004680D02*
X028200Y004680D01*
X028200Y003680D02*
X028800Y003680D01*
X030700Y003680D02*
X031300Y003680D01*
X031300Y002680D02*
X030700Y002680D01*
X028800Y002680D02*
X028200Y002680D01*
X028200Y001680D02*
X028800Y001680D01*
X030700Y001680D02*
X031300Y001680D01*
D17*
X024750Y001130D03*
X020100Y003030D03*
X021250Y003680D03*
X014750Y004480D03*
X011450Y005530D03*
X008600Y004380D03*
D18*
X003850Y001030D03*
X006700Y003480D03*
X006250Y003730D03*
X008300Y005080D03*
X007500Y005280D03*
X006300Y006130D03*
X007500Y007030D03*
X009500Y006530D03*
X011200Y006530D03*
X012150Y006530D03*
X013250Y006330D03*
X012850Y007280D03*
X011300Y007630D03*
X010300Y007430D03*
X012500Y005280D03*
X012500Y004780D03*
X013250Y004530D03*
X013750Y004530D03*
X014850Y005230D03*
X016050Y004530D03*
X016850Y004230D03*
X017000Y003380D03*
X017600Y003480D03*
X018900Y003580D03*
X019400Y003930D03*
X018650Y004280D03*
X017300Y005030D03*
X016350Y005230D03*
X018200Y005230D03*
X018700Y005230D03*
X020250Y005930D03*
X019550Y006230D03*
X019150Y006530D03*
X018650Y006530D03*
X020250Y007430D03*
X020800Y007230D03*
X022600Y007630D03*
X023100Y007630D03*
X023350Y006630D03*
X021200Y005930D03*
X021650Y005230D03*
X023200Y004030D03*
X024200Y004030D03*
X021650Y002780D03*
X020250Y002030D03*
X018950Y001430D03*
X018850Y002630D03*
X017250Y002630D03*
X016400Y002630D03*
X015900Y002780D03*
X015350Y003130D03*
X014400Y002630D03*
X013750Y002780D03*
X012600Y003480D03*
X011850Y003480D03*
X011700Y002130D03*
X015000Y001430D03*
X015300Y001030D03*
X015350Y003830D03*
X015250Y006580D03*
X016000Y007430D03*
X015250Y007980D03*
X016900Y007780D03*
X015200Y010030D03*
X014700Y010030D03*
X013350Y010430D03*
X012600Y010730D03*
X012100Y010730D03*
X011350Y010930D03*
X011000Y011330D03*
X010300Y012130D03*
X010700Y012430D03*
X010900Y013130D03*
X012100Y012430D03*
X012600Y012230D03*
X014900Y013130D03*
X016100Y012430D03*
X017250Y013130D03*
X018950Y012230D03*
X018500Y011980D03*
X018000Y011980D03*
X019850Y011280D03*
X019500Y010930D03*
X018050Y010530D03*
X016500Y010530D03*
X015000Y010930D03*
X016100Y011430D03*
X020000Y012430D03*
X023100Y012880D03*
X025100Y012030D03*
X026150Y012380D03*
X023850Y011630D03*
X025150Y010780D03*
X024100Y010430D03*
X023400Y010730D03*
X022600Y010730D03*
X023300Y010030D03*
X021550Y010030D03*
X020000Y010230D03*
X027850Y006730D03*
X026550Y002230D03*
X025550Y002030D03*
X025900Y001580D03*
X026700Y001230D03*
X023800Y001930D03*
X009300Y005080D03*
X005150Y007780D03*
X007150Y010030D03*
X007850Y010230D03*
X008550Y010230D03*
X007150Y011330D03*
X006650Y011330D03*
X006200Y011680D03*
X004150Y012230D03*
X003800Y012580D03*
X002900Y011880D03*
X004600Y010580D03*
X002000Y010230D03*
X009100Y012030D03*
X016550Y014380D03*
M02*
